<?xml version="1.0" encoding="UTF-8" standalone="no"?>
<!-- Created with Inkscape (http://www.inkscape.org/) -->

<svg
   xmlns:dc="http://purl.org/dc/elements/1.1/"
   xmlns:cc="http://creativecommons.org/ns#"
   xmlns:rdf="http://www.w3.org/1999/02/22-rdf-syntax-ns#"
   xmlns:svg="http://www.w3.org/2000/svg"
   xmlns="http://www.w3.org/2000/svg"
   xmlns:sodipodi="http://sodipodi.sourceforge.net/DTD/sodipodi-0.dtd"
   xmlns:inkscape="http://www.inkscape.org/namespaces/inkscape"
   version="1.1"
   id="svg2"
   xml:space="preserve"
   width="793.70667"
   height="1122.52"
   viewBox="0 0 793.70667 1122.52"
   sodipodi:docname="Tor Style Guide page 2.svg"
   inkscape:version="0.92.0 r"><title
     id="title4612">Tor Style Guide</title><metadata
     id="metadata8"><rdf:RDF><cc:Work
         rdf:about=""><dc:format>image/svg+xml</dc:format><dc:type
           rdf:resource="http://purl.org/dc/dcmitype/StillImage" /><dc:title>Tor Style Guide</dc:title><cc:license
           rdf:resource="http://creativecommons.org/licenses/by/4.0/" /><dc:date>2 October 2016</dc:date><dc:rights><cc:Agent><dc:title>Some rights reserved - Licensed under CC-BY license</dc:title></cc:Agent></dc:rights><dc:source>www.ura.design</dc:source><dc:subject><rdf:Bag><rdf:li>Tor Style Guide</rdf:li></rdf:Bag></dc:subject><dc:contributor><cc:Agent><dc:title>Elio Qoshi</dc:title></cc:Agent></dc:contributor><dc:creator><cc:Agent><dc:title>Ura De</dc:title></cc:Agent></dc:creator></cc:Work><cc:License
         rdf:about="http://creativecommons.org/licenses/by/4.0/"><cc:permits
           rdf:resource="http://creativecommons.org/ns#Reproduction" /><cc:permits
           rdf:resource="http://creativecommons.org/ns#Distribution" /><cc:requires
           rdf:resource="http://creativecommons.org/ns#Notice" /><cc:requires
           rdf:resource="http://creativecommons.org/ns#Attribution" /><cc:permits
           rdf:resource="http://creativecommons.org/ns#DerivativeWorks" /></cc:License></rdf:RDF></metadata><defs
     id="defs6"><clipPath
       clipPathUnits="userSpaceOnUse"
       id="clipPath20"><path
         d="M 0,841.89 H 595.28 V 0 H 0 Z"
         id="path18"
         inkscape:connector-curvature="0" /></clipPath><clipPath
       clipPathUnits="userSpaceOnUse"
       id="clipPath72"><path
         d="M 0,841.89 H 595.28 V 0 H 0 Z"
         id="path70"
         inkscape:connector-curvature="0" /></clipPath><clipPath
       clipPathUnits="userSpaceOnUse"
       id="clipPath88"><path
         d="M 0,841.89 H 595.28 V 0 H 0 Z"
         id="path86"
         inkscape:connector-curvature="0" /></clipPath></defs><sodipodi:namedview
     pagecolor="#ffffff"
     bordercolor="#666666"
     borderopacity="1"
     objecttolerance="10"
     gridtolerance="10"
     guidetolerance="10"
     inkscape:pageopacity="0"
     inkscape:pageshadow="2"
     inkscape:window-width="1366"
     inkscape:window-height="714"
     id="namedview4"
     showgrid="false"
     inkscape:zoom="0.42048248"
     inkscape:cx="-23.724458"
     inkscape:cy="664.27869"
     inkscape:window-x="0"
     inkscape:window-y="0"
     inkscape:window-maximized="1"
     inkscape:current-layer="g10" /><g
     id="g10"
     inkscape:groupmode="layer"
     inkscape:label="Styleguide 1.2 (2)"
     transform="matrix(1.3333333,0,0,-1.3333333,0,1122.52)"><path
       d="m 0.22,0 h 155.5 V 841.89 H 0.22 Z"
       style="fill:#f1f2f2;fill-opacity:1;fill-rule:nonzero;stroke:none"
       id="path12"
       inkscape:connector-curvature="0" /><g
       id="g14"><g
         id="g16"
         clip-path="url(#clipPath20)"><g
           id="g22"
           transform="translate(-176.2324,210.5289)"><path
             d="m 0,0 16.755,-8.547 c -1.575,-11.029 0.788,-35.461 11.817,-41.762 48.858,-30.337 94.953,-63.432 113.078,-96.528 64.616,-116.624 -45.31,-224.576 -140.262,-214.331 51.613,38.218 66.586,116.621 47.28,202.12 -7.879,33.49 -20.096,63.827 -41.767,98.106 C -2.487,-44.117 0.79,-23.249 0,0 Z"
             style="fill:#7d4698;fill-opacity:1;fill-rule:nonzero;stroke:none"
             id="path24"
             inkscape:connector-curvature="0" /></g></g></g><text
       transform="matrix(1,0,0,-1,180.9248,770.2378)"
       style="font-variant:normal;font-weight:normal;font-stretch:normal;font-size:12px;font-family:'Source Sans Pro';-inkscape-font-specification:SourceSansPro-Regular;writing-mode:lr-tb;fill:#58595b;fill-opacity:1;fill-rule:nonzero;stroke:none"
       id="text38"><tspan
         x="0 6.3720002 12.9 18.851999 21.275999 26.879999 29.832001 34.860001 41.388 47.532001 50.591999 53.015999 55.967999 62.627998 68.580002 75.143997 79.199997 82.152 86.208 91.811996 94.236 100.74 104.244 106.668 111.696 118.2 125.328 133.8228 139.9668 144.0108 149.9628 152.3868 155.33881 160.36681 162.7908 168.9348 175.49879 177.92281 180.8748 187.4388 191.3748 197.2068 203.25481 207.1188 213.2628 216.3228 218.7468 225.2388 231.3828 235.5468 239.6028 242.02679 248.53081 252.03481 254.4588 257.4108 261.4668 266.49481 268.91879 275.44681 280.47479 286.42679 290.59079 293.0148 298.88281 304.2348 310.89481 316.8468 321.0108 323.9628 329.91479 336.47879 341.69879 347.65079 350.63879"
         y="0"
         sodipodi:role="line"
         id="tspan26">The visual identity of sofware is an integral part of its user experience. </tspan><tspan
         x="0 6.7919998 13.296 17.459999 21.5028 27.4548 32.9268 36.9828 40.042801 45.646801 48.070801 54.598801 59.626801 62.5788 69.142799 75.190804 77.614799 83.758797 86.1828 91.402802 97.906799 104.4708 109.4988 112.4508 117.4788 121.4148 127.3668 133.9308 137.9868 140.4108 146.55479 153.1188 159.77879 162.2028 168.3468 172.4028 176.4588 180.32159 186.46561 191.93761 195.99361 198.9456 204.50281 210.4548 212.8788 217.9068 221.9628 227.5668 230.6268 236.5788 239.00281 241.9548 246.9828 249.4068 252.3588 262.30679 268.9668 275.47079 279.6348 283.47601 289.62 296.18399 300.23999 302.664 306.60001 313.104 315.52802 321.89999 328.42801 334.38 336.80399 342.384 348.888 353.052"
         y="14.4"
         sodipodi:role="line"
         id="tspan28">Correctly using a consistent and attractive style is important to The Tor </tspan><tspan
         x="0 6.8520002 10.896 17.4 20.364 26.316 31.788 35.844002 38.268002 44.928001 50.880001 56.2332 62.377201 68.905197 73.933197 79.885201 82.309196 85.2612 89.3172 91.741203 98.269203 104.2212 107.2812 113.9412 118.9692 121.3932 127.9212 132.9492 138.9012 142.94521 147.97321 150.3972 157.05721 163.58521 166.5372 169.5972 176.2572 178.6812 182.7372 186.9012 193.4292 198.4572 202.5132 204.93719 207.88921 214.4532 216.8772 220.9332 227.4612 233.41319 235.8372 244.4052 250.90919 255.0732 261.01321 263.43719 272.00519 277.95721 280.3812 287.0412 293.4252"
         y="28.799999"
         sodipodi:role="line"
         id="tspan30">Project because it helps users build trust in the work we do.</tspan><tspan
         x="0 9.3719997 15.324 17.747999 24.275999 30.780001 37.439999 43.391998 45.816002 49.872002 56.400002 62.543999 66.599998 69.024002 73.080002 79.608002 82.559998 87.587997 90.012001 96.059998 102.588 105.54 112.2 118.152 120.576 129.192 132.144 135.20399 138.26401 140.688 147.216 153.168 156.228 162.888 165.312 170.868 177.37199 183.89999 186.32401 191.79601 195.84 201.62399 207.76801 211.7052 217.6572 220.08121 230.02921 236.1732 240.10921 246.0612 250.2252 253.1772 259.3212 262.3812 267.40921 269.83319 275.9772 282.5412 289.2012 291.62521 297.7692 304.33319 309.36121 317.9292 323.8812 328.0452"
         y="57.599998"
         sodipodi:role="line"
         id="tspan32">We hope that this guide will help you create materials and answer </tspan><tspan
         x="0 6.6599998 13.164 17.1 23.052 29.615999 33.672001 36.624001 42.768002 45.827999 48.251999 54.852001 61.380001 67.332001 72.360001 76.416 79.367996 85.872002 92.435997 97.463997 99.888 105.444 111.948 118.476 120.9 130.84801 133.8 139.84801 146.37601 150.43201 152.856 159.384 165.528 171.084 177.036 179.46001 185.604 192.26401 198.76801 205.29601 209.35201 211.776 215.832 222.36 228.312 230.73599 237.26401 242.29201 248.244 250.668 257.172 260.67599 263.10001 267.15601 273.68399 279.63599 282.06 287.64001 294.14401 298.30801 300.73199 307.392 311.2572 317.40121 323.96521 330.62521"
         y="72"
         sodipodi:role="line"
         id="tspan34">potential questions you might have about the use of the Tor brand.</tspan><tspan
         x="0 6.3720002 12.9 19.044001 23.1 25.524 30.552 36.695999 39.647999 46.307999 49.296001 51.720001 55.776001 62.304001 68.255997 72.300003 78.251999 80.676003 83.627998 88.655998 91.080002 97.223999 99.648003 103.692 109.476 115.62 120.648 127.152 133.716 136.14 144.70799 150.66 153.084 158.4348 164.5788 167.63879 170.69881 173.1228 177.1788 183.7068 186.6588 191.6868 194.11079 200.25481 202.6788 207.7068 211.7628 217.36681 220.4268 226.3788"
         y="100.8"
         sodipodi:role="line"
         id="tspan36">That said, there is a reason we call this a style </tspan></text>
<text
       transform="matrix(1,0,0,-1,409.7276,669.4378)"
       style="font-style:italic;font-variant:normal;font-weight:normal;font-stretch:normal;font-size:12px;font-family:'Source Sans Pro';-inkscape-font-specification:SourceSansPro-It;writing-mode:lr-tb;fill:#58595b;fill-opacity:1;fill-rule:nonzero;stroke:none"
       id="text42"><tspan
         x="0 6.3720002 12.708 15.552 21.972"
         y="0"
         sodipodi:role="line"
         id="tspan40">guide</tspan></text>
<text
       transform="matrix(1,0,0,-1,439.8956,669.4378)"
       style="font-variant:normal;font-weight:normal;font-stretch:normal;font-size:12px;font-family:'Source Sans Pro';-inkscape-font-specification:SourceSansPro-Regular;writing-mode:lr-tb;fill:#58595b;fill-opacity:1;fill-rule:nonzero;stroke:none"
       id="text46"><tspan
         x="0 6.1440001 12.708 19.368 21.792 28.356001 34.860001 38.916 41.34 47.484001 49.908001 54.936001 60.720001 64.776001 67.199997 73.704002 77.208 79.632004 84.660004 88.716003 94.32 97.379997 103.332"
         y="0"
         sodipodi:role="line"
         id="tspan44">and not a set of style </tspan></text>
<text
       transform="matrix(1,0,0,-1,180.9248,655.0378)"
       style="font-style:italic;font-variant:normal;font-weight:normal;font-stretch:normal;font-size:12px;font-family:'Source Sans Pro';-inkscape-font-specification:SourceSansPro-It;writing-mode:lr-tb;fill:#58595b;fill-opacity:1;fill-rule:nonzero;stroke:none"
       id="text50"><tspan
         x="0 4.1040001 10.44 13.416 19.188 24.011999 26.916"
         y="0"
         sodipodi:role="line"
         id="tspan48">rules. </tspan></text>
<text
       transform="matrix(1,0,0,-1,210.1448,655.0378)"
       style="font-variant:normal;font-weight:normal;font-stretch:normal;font-size:12px;font-family:'Source Sans Pro';-inkscape-font-specification:SourceSansPro-Regular;writing-mode:lr-tb;fill:#58595b;fill-opacity:1;fill-rule:nonzero;stroke:none"
       id="text60"><tspan
         x="0 6.3720002 12.9 18.851999 22.8948 28.8468 31.2708 41.2188 47.362801 52.966801 55.3908 62.0508 68.0028 70.426804 75.454803 78.406799 82.3908 88.9188 95.062798 99.118797 102.0708 108.5748 115.1388 120.1668 122.5908 126.6468 133.1748 139.3188 143.3748 145.7988 149.8548 156.3828 159.33479 164.36279 166.7868 172.83479 179.36279 182.3148 188.97479 194.9268 197.3508 204.0108 210.5148 216.4668 221.4948 223.91879 230.4828 236.9868 241.0428 243.4668 248.6868 255.14281 260.69879 266.65079 270.1308 273.1188 275.54279 281.6868 288.25079 294.9108 297.33481 305.95081 312.47879 318.43079 322.47479 328.42679"
         y="0"
         sodipodi:role="line"
         id="tspan52">There may be situations that this guide does not cover, and where </tspan><tspan
         x="-29.219999 -23.664 -17.16 -10.632 -8.2080002 -4.704 -1.752 4.8119998 11.472 13.896 19.452 25.955999 32.484001 36.528 41.556 47.507999 50.568001 54.071999 56.495998 63.060001 69.012001 74.963997 81.624001 84.575996 91.139999 97.188004 99.612 103.548 110.052 112.476 117.504 121.56 125.604 131.388 135.32401 140.79601 147.32401 149.748 153.804 160.332 166.284 168.70799 173.73599 177.576 183.72 190.284 196.944 203.088 207.132 213.79201 218.82001 221.244 227.388 229.812 236.472 239.424 243.64799 246.636 249.06 255.912 258.97198 264.75601 270.89999 275.92801 281.88 284.30399 288.34799 294.13199 300.276 305.74799 312.276 314.70001 321.20401 327.73199 331.78799 334.21201 338.14801 344.65201"
         y="14.4"
         sodipodi:role="line"
         id="tspan54">you find yourself needing to stretch the standards a bit. Please reach out to </tspan><tspan
         x="-29.219999 -22.691999 -17.664 -15.24 -9.0959997 -2.5320001 4.1279998 6.552 10.488 16.440001 19.5 22.559999 24.983999 31.511999 36.540001 38.964001 45.108002 51.768002 58.271999 64.800003 68.856003 71.279999 75.335999 81.863998 87.816002 92.844002 98.795998 101.22 106.5732 112.7172 117.7452 123.6972 128.7252 131.7132 134.13721 139.16521 145.6692 148.0932 152.1492 158.6772 164.8212 168.8772 171.30119 179.8692 185.8212 188.24519 193.5984 199.7424 206.3064 208.73039 215.3904 221.89439 225.95039 232.47839 234.9024 238.9464 244.9584 250.56239 253.5144 259.52521 268.1412 270.56519 276.12119 282.62521 289.1532 293.3172 295.74121 300.7692 307.27319 310.33319 316.86121 320.91721 323.8692 330.3732 336.93719"
         y="28.799999"
         sodipodi:role="line"
         id="tspan56">us and tell us about these cases, so that we can both review your solution </tspan><tspan
         x="-29.219999 -23.076 -16.511999 -9.8520002 -7.428 1.14 7.6440001 11.808 17.747999 20.172001 24.108 30.612 33.035999 35.987999 45.936001 52.596001 56.639999 63.096001 68.652 74.603996 77.028 81.084 87.612 93.564003 95.987999 102.036 108.564 111.516 118.176 124.128 126.552 133.008 138.5652 144.5172 148.6812 151.10519 155.16119 158.1132 168.0612 174.0132"
         y="43.200001"
         sodipodi:role="line"
         id="tspan58">and work to improve the guide over time.</tspan></text>
<text
       transform="matrix(1,0,0,-1,34.0059,790.8198)"
       style="font-variant:normal;font-weight:600;font-stretch:normal;font-size:16px;font-family:'Source Sans Pro Semibold';-inkscape-font-specification:SourceSansPro-Semibold;writing-mode:lr-tb;fill:#7d4698;fill-opacity:1;fill-rule:nonzero;stroke:none"
       id="text64"><tspan
         x="0 4.4640002 13.424 19.200001 25.007999 33.792 42.816002 51.712002 59.104 64.879997 69.071999 77.856003"
         y="0"
         sodipodi:role="line"
         id="tspan62">Introduction</tspan></text>
<g
       id="g66"><g
         id="g68"
         clip-path="url(#clipPath72)"><g
           id="g74"
           transform="translate(127.0533,795.0323)"><path
             d="M 0,0 H 62"
             style="fill:none;stroke:#d1d3d4;stroke-width:3;stroke-linecap:butt;stroke-linejoin:miter;stroke-miterlimit:10;stroke-dasharray:none;stroke-opacity:1"
             id="path76"
             inkscape:connector-curvature="0" /></g></g></g><text
       transform="matrix(1,0,0,-1,34.0059,561.8198)"
       style="font-variant:normal;font-weight:600;font-stretch:normal;font-size:16px;font-family:'Source Sans Pro Semibold';-inkscape-font-specification:SourceSansPro-Semibold;writing-mode:lr-tb;fill:#7d4698;fill-opacity:1;fill-rule:nonzero;stroke:none"
       id="text80"><tspan
         x="0 9.1680002 17.952 26.912001 32.448002 40.816002 48.208"
         y="0"
         sodipodi:role="line"
         id="tspan78">Contact</tspan></text>
<g
       id="g82"><g
         id="g84"
         clip-path="url(#clipPath88)"><g
           id="g90"
           transform="translate(93.6727,566.0323)"><path
             d="M 0,0 H 95.381"
             style="fill:none;stroke:#d1d3d4;stroke-width:3;stroke-linecap:butt;stroke-linejoin:miter;stroke-miterlimit:10;stroke-dasharray:none;stroke-opacity:1"
             id="path92"
             inkscape:connector-curvature="0" /></g></g></g><text
       transform="matrix(1,0,0,-1,391.9248,467.7578)"
       style="font-variant:normal;font-weight:600;font-stretch:normal;font-size:16px;font-family:'Source Sans Pro Semibold';-inkscape-font-specification:SourceSansPro-Semibold;writing-mode:lr-tb;fill:#7d4698;fill-opacity:1;fill-rule:nonzero;stroke:none"
       id="text96"><tspan
         x="0 8.5439997 12.88 17.072001 25.856001 29.136 39.872002 48.593601 55.489601 64.417603"
         y="0"
         sodipodi:role="line"
         id="tspan94">Elio Qoshi</tspan></text>
<text
       transform="matrix(1,0,0,-1,391.9248,453.3574)"
       style="font-variant:normal;font-weight:normal;font-stretch:normal;font-size:12px;font-family:'Source Sans Pro';-inkscape-font-specification:SourceSansPro-Regular;writing-mode:lr-tb;fill:#68b030;fill-opacity:1;fill-rule:nonzero;stroke:none"
       id="text102"><tspan
         x="0 5.5799999 12.084 16.247999 18.672001 25.667999 29.5308 35.674801 42.2388 48.8988 51.3228 58.666801 64.618797 69.646797 72.598801 78.646797 85.2108 91.162804"
         y="0"
         sodipodi:role="line"
         id="tspan98">Tor Brand Designer</tspan><tspan
         x="0 5.9520001 9.0120001 11.964 18.468 28.632 35.16 39.023998 45.167999 48.060001 54.720001 60.672001 65.699997 68.652 74.699997"
         y="14.4"
         sodipodi:role="line"
         id="tspan100">elio@ura.design</tspan></text>
<text
       transform="matrix(1,0,0,-1,180.9248,467.7578)"
       style="font-variant:normal;font-weight:600;font-stretch:normal;font-size:16px;font-family:'Source Sans Pro Semibold';-inkscape-font-specification:SourceSansPro-Semibold;writing-mode:lr-tb;fill:#7d4698;fill-opacity:1;fill-rule:nonzero;stroke:none"
       id="text106"><tspan
         x="0 7.552 16.336 22.304001 25.584 35.855999 44.464001 47.743999 55.294399 63.214401 71.582397"
         y="0"
         sodipodi:role="line"
         id="tspan104">Tor UX Team</tspan></text>
<text
       transform="matrix(1,0,0,-1,180.9248,453.3574)"
       style="font-variant:normal;font-weight:normal;font-stretch:normal;font-size:12px;font-family:'Source Sans Pro';-inkscape-font-specification:SourceSansPro-Regular;writing-mode:lr-tb;fill:#58595b;fill-opacity:1;fill-rule:nonzero;stroke:none"
       id="text116"><tspan
         x="0 6.5279999 11.88 22.044001 25.104 28.056 33.084 37.139999 42.167999 44.82 48.756001 55.259998 59.424 66.084 70.127998 76.632004 79.596001 85.547997 91.019997 95.245201 98.137199 104.6412 108.684"
         y="0"
         sodipodi:role="line"
         id="tspan108">ux@lists.torproject.org</tspan><tspan
         x="0 5.6999998 12.204 16.368 18.792 24.936001 31.5 37.104 39.528 46.127998 52.655998 58.608002 63.636002 67.692001 70.643997 77.148003 83.711998 88.739998 91.164001 97.307999 103.872 110.532 112.956 115.908 122.472 129.07201 135.60001 138.552 142.716 145.668 151.62 156.64799 159.07201 164.62801 171.132 177.66 180.084 190.032 192.98399 199.032 205.56 209.616 212.03999 218.56799 224.71201 230.26801 236.22 238.644 242.6868 248.63879 251.69881 257.8428 261.77881 267.7308 274.39081 276.81479 280.75201 287.25601 289.67999 293.73599 300.26401 303.216 308.24399 310.668 315.69601 319.75201 325.35599 328.41599 334.24799 340.29599 346.82401 349.776 356.436 362.388 365.37601"
         y="-85.692001"
         sodipodi:role="line"
         id="tspan110">For any questions and inquiries you might have related to this styleguide, </tspan><tspan
         x="0 8.5679998 14.52 16.944 22.896 29.459999 34.68 41.183998 47.712002 51.576 57.720001 63.599998 69.552002 71.975998 77.531998 84.036003 90.564003 92.987999 96.924004 103.428 105.852 109.896 115.6788 121.8228 127.2948 133.8228 136.2468 142.75079 149.27879 153.33479 155.7588 159.69479 166.19881 168.6228 175.1268 181.6548 185.8188 188.2428 191.19479 197.7588 201.4908 208.0188 214.5228 221.0508 226.0788 232.03081 234.4548 242.0148 248.11079 250.53481 254.47079 260.25601 266.39999 276.34799 278.772 287.388 293.91599 300.42001 302.84399 311.45999 314.41199 317.47198 320.53201 322.95599 329.616 335.56799 337.992 344.13599 350.79599 353.85599 359.80801 362.23199 366.168 372.672"
         y="-71.292"
         sodipodi:role="line"
         id="tspan112">we encourage you to reach out to our in-house UX team who will be able to </tspan><tspan
         x="0 3.2639999 9.408 14.88 17.832001 20.892 23.844 27.6852 33.829201 37.765202 43.717201 46.141201 51.697201 58.201199 64.729202 68.893204 71.3172 77.881203 83.833199 89.785202 96.445198 101.4732"
         y="-56.891998"
         sodipodi:role="line"
         id="tspan114">facilitate your needs.</tspan></text>
</g></svg>