<?xml version="1.0" encoding="UTF-8" standalone="no"?>
<!-- Created with Inkscape (http://www.inkscape.org/) -->

<svg
   xmlns:dc="http://purl.org/dc/elements/1.1/"
   xmlns:cc="http://creativecommons.org/ns#"
   xmlns:rdf="http://www.w3.org/1999/02/22-rdf-syntax-ns#"
   xmlns:svg="http://www.w3.org/2000/svg"
   xmlns="http://www.w3.org/2000/svg"
   xmlns:sodipodi="http://sodipodi.sourceforge.net/DTD/sodipodi-0.dtd"
   xmlns:inkscape="http://www.inkscape.org/namespaces/inkscape"
   version="1.1"
   id="svg2"
   xml:space="preserve"
   width="793.70667"
   height="1122.52"
   viewBox="0 0 793.70667 1122.52"
   sodipodi:docname="Tor Style Guide page 4.svg"
   inkscape:version="0.92.0 r"><title
     id="title4764">Tor Style Guide</title><metadata
     id="metadata8"><rdf:RDF><cc:Work
         rdf:about=""><dc:format>image/svg+xml</dc:format><dc:type
           rdf:resource="http://purl.org/dc/dcmitype/StillImage" /><dc:title>Tor Style Guide</dc:title><cc:license
           rdf:resource="http://creativecommons.org/licenses/by/4.0/" /><dc:date>2 October 2016</dc:date><dc:creator><cc:Agent><dc:title>Ura Design</dc:title></cc:Agent></dc:creator><dc:rights><cc:Agent><dc:title>Some rights reserved - Licensed under CC-BY license</dc:title></cc:Agent></dc:rights><dc:source>www.ura.design</dc:source><dc:subject><rdf:Bag><rdf:li>Tor Style Guide</rdf:li></rdf:Bag></dc:subject><dc:contributor><cc:Agent><dc:title>Elio Qoshi</dc:title></cc:Agent></dc:contributor></cc:Work><cc:License
         rdf:about="http://creativecommons.org/licenses/by/4.0/"><cc:permits
           rdf:resource="http://creativecommons.org/ns#Reproduction" /><cc:permits
           rdf:resource="http://creativecommons.org/ns#Distribution" /><cc:requires
           rdf:resource="http://creativecommons.org/ns#Notice" /><cc:requires
           rdf:resource="http://creativecommons.org/ns#Attribution" /><cc:permits
           rdf:resource="http://creativecommons.org/ns#DerivativeWorks" /></cc:License></rdf:RDF></metadata><defs
     id="defs6"><clipPath
       clipPathUnits="userSpaceOnUse"
       id="clipPath102"><path
         d="M 0,841.89 H 595.28 V 0 H 0 Z"
         id="path100"
         inkscape:connector-curvature="0" /></clipPath><clipPath
       clipPathUnits="userSpaceOnUse"
       id="clipPath114"><path
         d="m 420.166,345.873 h 49.729 v -58.688 h -49.729 z"
         id="path112"
         inkscape:connector-curvature="0" /></clipPath><clipPath
       clipPathUnits="userSpaceOnUse"
       id="clipPath218"><path
         d="M 0,841.89 H 595.28 V 0 H 0 Z"
         id="path216"
         inkscape:connector-curvature="0" /></clipPath><clipPath
       clipPathUnits="userSpaceOnUse"
       id="clipPath240"><path
         d="M 0,841.89 H 595.28 V 0 H 0 Z"
         id="path238"
         inkscape:connector-curvature="0" /></clipPath></defs><sodipodi:namedview
     pagecolor="#ffffff"
     bordercolor="#666666"
     borderopacity="1"
     objecttolerance="10"
     gridtolerance="10"
     guidetolerance="10"
     inkscape:pageopacity="0"
     inkscape:pageshadow="2"
     inkscape:window-width="1366"
     inkscape:window-height="714"
     id="namedview4"
     showgrid="false"
     inkscape:zoom="0.42048248"
     inkscape:cx="9.5719339"
     inkscape:cy="530.07185"
     inkscape:window-x="0"
     inkscape:window-y="0"
     inkscape:window-maximized="1"
     inkscape:current-layer="g10" /><g
     id="g10"
     inkscape:groupmode="layer"
     inkscape:label="Styleguide 1.2 (2)"
     transform="matrix(1.3333333,0,0,-1.3333333,0,1122.52)"><path
       d="M 0,0 H 155.5 V 839.942 H 0 Z"
       style="fill:#f1f2f2;fill-opacity:1;fill-rule:nonzero;stroke:none"
       id="path12"
       inkscape:connector-curvature="0" /><text
       transform="matrix(1,0,0,-1,33.7861,788.8716)"
       style="font-variant:normal;font-weight:600;font-stretch:normal;font-size:16px;font-family:'Source Sans Pro Semibold';-inkscape-font-specification:SourceSansPro-Semibold;writing-mode:lr-tb;fill:#7d4698;fill-opacity:1;fill-rule:nonzero;stroke:none"
       id="text16"><tspan
         x="0 10.56 18.48 26.848 35.872002 40.063999 49.023998"
         y="0"
         sodipodi:role="line"
         id="tspan14">Heading</tspan></text>
<g
       id="g18"
       transform="translate(96.4933,793.0846)"><path
         d="M 0,0 H 92.34"
         style="fill:none;stroke:#d1d3d4;stroke-width:3;stroke-linecap:butt;stroke-linejoin:miter;stroke-miterlimit:10;stroke-dasharray:none;stroke-opacity:1"
         id="path20"
         inkscape:connector-curvature="0" /></g><text
       transform="matrix(1,0,0,-1,33.7861,728.8716)"
       style="font-variant:normal;font-weight:600;font-stretch:normal;font-size:16px;font-family:'Source Sans Pro Semibold';-inkscape-font-specification:SourceSansPro-Semibold;writing-mode:lr-tb;fill:#7d4698;fill-opacity:1;fill-rule:nonzero;stroke:none"
       id="text24"><tspan
         x="0 8.8000002 17.167999 22.704 31.072001 39.391998 44.928001 53.296001 62.32"
         y="0"
         sodipodi:role="line"
         id="tspan22">Paragraph</tspan></text>
<g
       id="g26"
       transform="translate(109.8267,733.0846)"><path
         d="M 0,0 H 79.007"
         style="fill:none;stroke:#d1d3d4;stroke-width:3;stroke-linecap:butt;stroke-linejoin:miter;stroke-miterlimit:10;stroke-dasharray:none;stroke-opacity:1"
         id="path28"
         inkscape:connector-curvature="0" /></g><text
       transform="matrix(1,0,0,-1,33.7861,387.8716)"
       style="font-variant:normal;font-weight:600;font-stretch:normal;font-size:16px;font-family:'Source Sans Pro Semibold';-inkscape-font-specification:SourceSansPro-Semibold;writing-mode:lr-tb;fill:#7d4698;fill-opacity:1;fill-rule:nonzero;stroke:none"
       id="text32"><tspan
         x="0 4.4640002 11.472 20.256001 29.216 38 46.32 51.855999 60.223999 69.248001 78.176003"
         y="0"
         sodipodi:role="line"
         id="tspan30">Iconography</tspan></text>
<g
       id="g34"
       transform="translate(128.16,392.0846)"><path
         d="M 0,0 H 60.673"
         style="fill:none;stroke:#d1d3d4;stroke-width:3;stroke-linecap:butt;stroke-linejoin:miter;stroke-miterlimit:10;stroke-dasharray:none;stroke-opacity:1"
         id="path36"
         inkscape:connector-curvature="0" /></g><text
       transform="matrix(1,0,0,-1,33.7861,220.8716)"
       style="font-variant:normal;font-weight:600;font-stretch:normal;font-size:16px;font-family:'Source Sans Pro Semibold';-inkscape-font-specification:SourceSansPro-Semibold;writing-mode:lr-tb;fill:#7d4698;fill-opacity:1;fill-rule:nonzero;stroke:none"
       id="text40"><tspan
         x="0 9.1680002 17.952 22.288 31.072001 36.880001"
         y="0"
         sodipodi:role="line"
         id="tspan38">Colors</tspan></text>
<g
       id="g42"
       transform="translate(84.4933,225.0846)"><path
         d="M 0,0 H 104.34"
         style="fill:none;stroke:#d1d3d4;stroke-width:3;stroke-linecap:butt;stroke-linejoin:miter;stroke-miterlimit:10;stroke-dasharray:none;stroke-opacity:1"
         id="path44"
         inkscape:connector-curvature="0" /></g><text
       transform="matrix(1,0,0,-1,53.9238,766.4893)"
       style="font-variant:normal;font-weight:normal;font-stretch:normal;font-size:10px;font-family:'Source Sans Pro';-inkscape-font-specification:SourceSansPro-Regular;writing-mode:lr-tb;fill:#6d6e71;fill-opacity:1;fill-rule:nonzero;stroke:none"
       id="text48"><tspan
         x="0 5.29 10.71 16.15 19.52 23.870001 28.83 30.85 36.139999 41.259998 46.73 50.919998 52.939999 58.650002 62.02 67.440002 69.459999 75.290001 80.709999 83.260002"
         y="0"
         sodipodi:role="line"
         id="tspan46">Source Sans Pro Bold</tspan></text>
<text
       transform="matrix(1,0,0,-1,45.1538,758.0894)"
       style="font-variant:normal;font-weight:normal;font-stretch:normal;font-size:7px;font-family:'Source Sans Pro';-inkscape-font-specification:SourceSansPro-Regular;writing-mode:lr-tb;fill:#6d6e71;fill-opacity:1;fill-rule:nonzero;stroke:none"
       id="text52"><tspan
         x="0 3.4790001 6.9580002 10.08 11.494 14.427 16.149 19.054001 22.525999 23.940001 27.733999 29.778 31.191999 34.888 38.472 40.726002 44.310001 47.838001 50.091999 53.675999 57.561001 61.368999 62.783001 66.038002 69.460297 72.582298 75.046303 76.789299 78.2033 82.200302 86.008301 88.437302 92.322304 94.1073 97.5793"
         y="0"
         sodipodi:role="line"
         id="tspan50">~2x size of Paragraph Text, Purple </tspan></text>
<text
       transform="matrix(1,0,0,-1,41.1343,698.0894)"
       style="font-variant:normal;font-weight:normal;font-stretch:normal;font-size:10px;font-family:'Source Sans Pro';-inkscape-font-specification:SourceSansPro-Regular;writing-mode:lr-tb;fill:#6d6e71;fill-opacity:1;fill-rule:nonzero;stroke:none"
       id="text56"><tspan
         x="0 5.29 10.71 16.15 19.52 23.870001 28.83 30.85 36.139999 41.259998 46.73 50.919998 52.939999 58.650002 62.021 67.441002 69.460999 75.120003 79.980003 85.019997 90.459999 93.010002 98.129997 101.6"
         y="0"
         sodipodi:role="line"
         id="tspan54">Source Sans Pro Regular </tspan></text>
<text
       transform="matrix(1,0,0,-1,181.397,758.6812)"
       style="font-variant:normal;font-weight:bold;font-stretch:normal;font-size:24px;font-family:'Source Sans Pro';-inkscape-font-specification:SourceSansPro-Bold;writing-mode:lr-tb;fill:#7d4698;fill-opacity:1;fill-rule:nonzero;stroke:none"
       id="text60"><tspan
         x="0 14.52 24.072001 30.695999 42.768002 55.584 66.792 79.295998 84.288002 90.912003 101.544 106.536 119.352 124.344 133.896 140.52 153.336 167.03999 176.328 183.528 188.52 202.248 215.56799 224.75999 229.752 242.56799 247.56 261.31201 270.86401 277.48801 290.04001 296.664 303.52802 315.72 328.104"
         y="0"
         sodipodi:role="line"
         id="tspan58">Privacy is a right, not a privilege</tspan></text>
<text
       transform="matrix(1,0,0,-1,181.397,706.7939)"
       style="font-variant:normal;font-weight:normal;font-stretch:normal;font-size:12px;font-family:'Source Sans Pro';-inkscape-font-specification:SourceSansPro-Regular;writing-mode:lr-tb;fill:#484848;fill-opacity:1;fill-rule:nonzero;stroke:none"
       id="text94"><tspan
         x="0 6.6719999 13.2 23.148001 25.572001 30.6 37.104 42.576 45.528 48.48 53.507999 55.931999 62.495998 68.639999 72.577202 79.0812 85.681198 92.209198 98.161201 100.5852 107.2452 113.1972 119.7612 125.9052 129.9612 132.91319 139.5732 146.1012 151.1292 153.55321 159.336 163.392 165.81599 175.76401 181.908 187.95599 194.52 197.472 202.5 204.924 211.584 214.536 219.564 221.98801 228.4812 234.6252 238.7892 242.7744 249.3024 253.4664 256.4184 262.37039 268.93439 272.99039 275.4144 285.3624 291.86639 298.43039 302.36639 308.31839 313.34641 316.33441 318.75839 325.32239 331.4664 336.49438 341.71439 347.49841 351.48239 358.01041 362.17441"
         y="0"
         sodipodi:role="line"
         id="tspan62">Cum sociis natoque penatibus et magnis dis parturient montes, nascetur </tspan><tspan
         x="0 4.164 7.1160002 13.776 16.728001 22.200001 28.728001 31.788 38.316002 43.344002 45.768002 55.716 62.243999 67.272003 70.260002 72.683998 79.475998 83.339996 89.484001 94.512001 96.935997 102.54 109.068 112.128 118.788 125.316 129.15601 135.3 139.23599 145.188 147.612 153.168 159.12 165.64799 168.60001 174.07201 180.60001 183.66 189.804 192.228 195.28799 201.79201 205.836 211.78799 221.73599 224.16 230.688 234.744 237.168 242.772 245.724 251.28 257.23199 261.396 265.26001 271.40399 274.392"
         y="14.4"
         sodipodi:role="line"
         id="tspan64">ridiculus mus. Cras vulputate vehicula lorem ut viverra. </tspan><tspan
         x="0 7.704 14.232 17.292 20.351999 26.496 36.444 38.868 44.424 50.375999 53.436001 55.860001 62.52 68.664001 75.323997 78.276001 84.935997 91.463997 96.491997 98.916 101.868 108.528 113.556 120.084 130.032 133.02 135.444 142.008 147.96001 151.02 154.08 160.032 166.59599 170.5332 176.4852 181.5132 188.1132 194.6412 200.5932 203.0172 206.07719 212.58121 219.2412 225.74519 229.90919 233.96519 236.91721 241.94521 244.9332 247.35719 250.3092 256.96921 261.99719 268.52521 278.47321 280.89719 286.728 292.608 298.392 302.448 304.87201 311.53201 314.59201 320.73599 327.29999 333.95999 336.91199 340.96799"
         y="43.200001"
         sodipodi:role="line"
         id="tspan66">Nullam vel dapibus ipsum. Pellentesque lobortis; ipsum eget blandit </tspan><tspan
         x="0 6.6599998 9.6120005 16.271999 22.224001 28.788 35.448002 41.976002 51.924 54.911999 57.335999 60.299999 66.828003 71.856003 75.792 82.295998 84.720001 88.655998 94.608002 97.667999 100.728 107.256 112.284 114.708 121.368 125.412 131.19479 135.25079 138.2028 144.7308 154.6788 157.1028 163.66679 169.6188 176.2188 182.7468 188.69881 191.6868 194.11079 200.6748 207.1788 213.7428 216.16679 222.1188 228.6468 231.5988 236.6268 246.5748 253.0788 259.7388 262.16281 268.72681 271.6788 278.33881 284.86679 287.2908 292.31879 298.27081 308.21881 310.64279 317.17081 321.22681 323.65079 327.81479 330.76682 335.7948 342.32281 347.3508 350.33881 352.76279 359.55481 363.41879 369.56281 374.59079"
         y="57.599998"
         sodipodi:role="line"
         id="tspan68">bibendum, justo tellus pretium neque, non euismod nibh sem ut risus. Cras </tspan><tspan
         x="0 3.5039999 6.4559999 13.02 15.972 22.632 29.16 34.188 37.175999 39.599998 46.164001 49.116001 55.776001 62.304001 64.727997 71.255997 75.311996 77.736 81.792 85.956001 88.907997 93.935997 97.991997 100.944 107.544 114.072 120.024 122.448 125.508 131.65199 138.15601 142.2 148.15199 153.936 158.16 161.14799 163.57201 166.536 173.064 178.092 182.02921 188.5332 190.9572 195.1212 198.0732 203.1012 209.6292 214.6572 217.08121 223.0332 226.0932 232.0452 241.99319 247.94521 254.5092 258.49319 265.02121 274.96921 277.39319 287.34119 290.29321 293.28119 295.7052 301.3092 304.2612 308.1012 314.24521 320.1972 322.62119 327.84119 334.34521 340.90921 346.95721 353.4852 359.43719"
         y="72"
         sodipodi:role="line"
         id="tspan70">finibus, nibh ut tristique laoreet, justo risus elementum mi, vitae congue </tspan><tspan
         x="0 3.0599999 9.0120001 14.484 18.468 24.996 30.024 32.448002 35.507999 41.652 47.124001 53.652 58.68 61.104 67.632004 71.688004 74.112 80.639999 84.804001 91.367996 97.512001 100.5 102.924 109.596 116.124 119.9892 126.1332 132.7932 135.74519 139.7292 146.2572 150.4212 152.8452 158.4024 164.3544 167.4144 169.83839 176.34241 183.0024 185.95441 192.4584 194.8824 200.4384 206.3904 209.45039 211.8744 214.9344 217.8864 223.9344 230.4624 233.5224 239.6664 242.09039 247.3116 253.8156 260.37961 267.03961 269.99161 279.93961 285.8916 292.4556 296.43839 302.9664 312.9144 315.33841 320.89441 326.84641 333.4104 339.3624 345.92639 352.0704 356.1264 359.0784 364.10641 367.09439"
         y="86.400002"
         sodipodi:role="line"
         id="tspan72">lectus lacus ut urna. Curabitur vel odio vel ligula condimentum venenatis. </tspan><tspan
         x="0 7.704 14.232 17.292 20.351999 26.496 36.444 38.868 41.928001 48.071999 53.543999 60.071999 65.099998 67.524002 77.472 83.615997 90.143997 94.307999 97.260002 102.288 105.276 107.7 114.36 117.312 122.784 126.7692 133.2972 143.24519 145.6692 152.2692 158.7972 161.74921 166.77721 169.2012 172.2612 178.7652 185.4252 191.9292 196.0932 200.1492 203.1012 208.1292 210.55321 215.58121 218.5332 222.5892 225.0132 231.1572 241.10519 246.888 251.112 254.10001 256.52399 262.668 265.728 268.67999 275.28 281.80801 287.952 297.89999 300.32401 306.46799 311.94 314.36401 320.92801 323.88 328.90799 331.85999 334.84799 337.272 344.12399 350.65201 356.79599 361.82401 367.776 370.836"
         y="100.8"
         sodipodi:role="line"
         id="tspan74">Nullam lacus mauris, dictum quis lobortis sit amet, aliquam ac nisi. Phasel-</tspan><tspan
         x="0 3.0599999 9.5880003 14.616 17.040001 23.700001 29.844 36.504002 39.456001 46.116001 52.644001 57.672001 60.096001 66.599998 73.260002 76.211998 82.716003 85.139999 88.092003 94.751999 97.176003 102.732 108.684 111.744 114.696 118.752 121.176 127.836 130.896 137.03999 142.25999 148.21201 152.076 158.22 162.276 164.7 169.728 175.87199 181.92 184.87199 188.92799 192.98399 195.936 200.964 203.952 206.37601 212.832 215.892 218.84399 225.444 231.972 238.116 248.064 250.48801 255.51601 261.46799 268.12799 270.552 277.21201 283.73999 287.90399 294.43201 299.45999 301.884 304.944 311.08801 316.56 319.51199 326.07599 329.02802 335.172 338.16 340.58401 347.112 350.172 354.228 358.392 361.34399 366.81601"
         y="115.2"
         sodipodi:role="line"
         id="tspan76">lus dapibus odio id velit placerat sagittis. Aliquam sed purus lacinia, ultric-</tspan><tspan
         x="0 2.9519999 8.9040003 13.932 16.356001 21.384001 27.336 37.284 39.708 42.66 49.223999 52.212002 54.636002 60 66.143997 70.307999 73.260002 79.788002 84.816002 87.239998 93.192001 98.220001 102.444 105.432 107.856 110.952 117.516 119.94 125.892 132.42 134.84399 141.34801 148.008 150.96001 157.464 159.888 165.72 171.60001 177.3828 181.4388 183.86279 189.8148 193.6788 199.8228 203.8788 206.3028 211.5228 218.02679 224.59081 229.6188 235.5708 241.0428 244.98 250.76401 254.7468 261.27481 265.43881 267.86279 274.5228 280.47479 283.53479 286.59479 292.54681 299.11081 303.04681 308.99881 314.02679 320.6268 327.15479 333.10681 335.53079 342.1308 348.65881 351.61081 356.63879"
         y="129.60001"
         sodipodi:role="line"
         id="tspan78">ies sem in, varius est. In eu odio eget erat consectetur pellentesque quis </tspan><tspan
         x="0 6.6599998 9.6120005 15.084 19.068001 25.596001 35.543999 37.967999 41.028 43.98 50.028 56.556 59.616001 65.760002 68.748001 71.171997 78.024002 81.886803 88.0308 93.982803 99.010803 104.9628 111.5268 115.5828 118.0068 120.9588 130.9068 137.5668 143.5188 147.56281 154.22279 157.1748 162.9588 167.0148 169.4388 174.4668 177.41879 181.47479 183.8988 190.0428 199.9908 205.7748 209.8308 212.25481 218.8188 225.3468 228.4068 231.4668 237.61079 240.03481 246.08279 249.9456 256.0896 261.6936 264.6456 271.3056 277.44958 279.8736 286.5336 289.4856 295.5336 302.0976 305.04959 310.07761 315.10559 318.05759 328.00562"
         y="144"
         sodipodi:role="line"
         id="tspan80">dictum ligula. Praesent imperdiet sit amet nulla gravida dignissim.</tspan><tspan
         x="0 6.8520002 10.896 17.4 20.351999 26.916 29.34 32.292 38.855999 41.279999 44.231998 54.18 60.84 66.792 70.835999 77.496002 80.447998 86.232002 90.288002 92.711998 102.66 108.4428 112.428 118.956 123.984 126.972 129.396 135.85201 141.804 148.368 154.15199 160.29601 166.86 169.284 179.23199 185.37601 190.728 193.67999 203.62801 210.15601 215.18401 217.608 223.752 227.7948 233.2668 239.7948 242.2188 248.78281 254.7348 260.20679 262.6308 265.59479 272.1228 277.15079 281.08801 287.59201 290.01599 295.96799 299.02802 304.98001 307.93201 311.31479 317.26682 323.83081 330.49081 332.91479 339.5748 345.71881 352.37881 355.33081"
         y="172.8"
         sodipodi:role="line"
         id="tspan82">Proin in imperdiet metus. Aenean maximus arcu nec justo eleifend dapi-</tspan><tspan
         x="0 6.6599998 13.188 18.094801 23.194799 25.618799 33.298801 37.354801 39.778801 43.714802 49.666801 59.614799 66.274803 72.802803 77.830803 80.254799 90.202797 96.346802 100.4028 104.4588 107.4108 112.4388 114.8628 121.3908 127.3428 133.9068 140.5668 144.61079 150.56281 154.72681 157.6788 161.9028 164.89079 167.3148 175.0188 181.5468 184.6068 187.66679 193.81081 196.2348 202.1868 208.7148 211.13879 216.69479 222.6468 229.1748 232.1268 237.5988 244.1268 247.1868 253.3308 255.75481 262.31879 265.27081 271.93079 278.4588 281.44681 283.87079 291.5748 298.10281 304.66681 310.13879 312.56281 318.5148 325.4028 328.3548 333.82681 336.77881 340.76279 347.2908 351.4548"
         y="187.2"
         sodipodi:role="line"
         id="tspan84">bus? Ut tempus mattis hendrerit. Nulla eu vehicula nibh. Nunc eficitur </tspan><tspan
         x="0 4.0560002 8.2200003 11.172 16.200001 20.256001 23.208 29.808001 36.335999 42.287998 44.712002 49.740002 55.883999 62.543999 65.496002 71.447998 78.012001 81 83.424004 89.987999 95.940002 101.412 103.836 109.056 115.56 122.124 128.784 131.73599 141.68401 147.636 154.2 158.18401 164.71201 174.66 177.084 187.032 193.17599 199.70399 203.868 206.82001 211.84801 214.272 220.8 223.86 226.92 233.064 243.01199 248.23199 254.73599 258.89999 265.56 271.51199 275.67599 278.10001 284.24399 288.46799 291.45599 293.88 300.228 306.17999 312.84 315.26401 321.92401 324.87601 331.53601 337.48801 344.052 350.71201 357.23999 367.18799"
         y="201.60001"
         sodipodi:role="line"
         id="tspan86">tristique sapien, nec condimentum mauris ullamcorper at. Sed bibendum </tspan><tspan
         x="0 6.6599998 12.804 19.464001 22.416 29.076 35.604 40.632 43.056 49.716 56.243999 60.408001 66.935997 71.963997 74.952003 77.375999 83.940002 89.891998 95.363998 97.788002 107.736 113.88 119.232 122.184 132.132 138.66 143.688 146.112 151.98 157.332 159.756 165.89999 171.12 176.592 183.12 193.06799 198.09599 204.24001 210.804 213.228 218.256 224.20799 230.868 233.856"
         y="216"
         sodipodi:role="line"
         id="tspan88">dapibus purus, nec maximus ex accumsan sed. </tspan><tspan
         x="0 5.6760001 12.204 17.232 22.452 28.403999 30.827999 36.972 42.192001 47.664001 54.192001 64.139999 69.167999 75.311996 81.875999 84.300003 87.360001 90.311996 96.360001 102.888 105.948 112.092 114.516 121.044 125.1 127.524 134.088 140.616 143.67599 146.73599 152.88 155.304 160.908 163.86 169.41721 175.3692 179.5332 183.3972 189.5412 191.96519 196.1292 202.6572 206.7132 210.8772 217.4052 227.3532 230.3412 232.7652 240.10921 246.6132 253.1772 259.12921 264.6012 267.02521 272.58121 278.5332 281.5932 284.01721 288.00119 294.52921 298.69321 305.35321 308.30521 313.33319 315.7572 320.78519 327.28922 330.34921 333.40921 336.36121 341.83319 344.78519 348.77039 355.2984 361.9584 364.9104 371.4744 374.4624"
         y="244.8"
         sodipodi:role="line"
         id="tspan90">Fusce accumsan ligula ut nulla viverra rutrum. Donec vel turpis sollicitudin, </tspan><tspan
         x="0 2.9519999 9.5159998 13.452 19.403999 23.448 30.108 36.636002 46.584 49.007999 55.152 59.195999 64.667999 71.195999 73.620003 79.764 82.751999 85.176003 88.68 91.632004 98.195999 101.148 107.808 114.336 119.364 121.788 124.752 131.28 136.308 140.24519 146.6292"
         y="259.20001"
         sodipodi:role="line"
         id="tspan92">interdum arcu a, finibus justo.</tspan></text>
<g
       id="g96"><g
         id="g98"
         clip-path="url(#clipPath102)"><g
           id="g104"
           transform="translate(469.8946,318.7123)"><path
             d="m 0,0 c 0,17.412 -14.115,31.527 -31.527,31.527 -17.412,0 -31.527,-14.115 -31.527,-31.527 0,-17.412 14.115,-31.527 31.527,-31.527 C -14.115,-31.527 0,-17.412 0,0"
             style="fill:#d1d3d4;fill-opacity:1;fill-rule:nonzero;stroke:none"
             id="path106"
             inkscape:connector-curvature="0" /></g><g
           id="g108"><g
             id="g110" /><g
             id="g122"><g
               clip-path="url(#clipPath114)"
               id="g120"
               style="opacity:0.19999701"><g
                 transform="translate(438.3639,328.6681)"
                 id="g118"><path
                   d="M 0,0 C 0.001,0.146 0.002,0.283 0.002,0.396 L 0.007,0.394 C 0.01,0.274 0.012,0.154 0.014,0.035 Z m 8.665,16.219 c 0.222,0.346 0.458,0.679 0.722,0.986 C 5.697,14.547 2.484,11.532 0.461,7.526 l 1.428,5.672 C -0.249,9.388 -1.714,5.449 -2.183,1.597 l -2.87,1.922 -0.516,-0.397 c 2.579,-4.641 1.231,-7.101 -0.039,-7.974 -2.579,-1.785 -6.348,-4.006 -8.212,-5.95 -3.61,-3.689 -4.642,-7.22 -4.324,-11.861 0.357,-5.951 4.681,-10.91 10.473,-12.854 0.387,-0.127 2.931,-2.63 6.144,-5.928 0.507,-0.025 1.017,-0.038 1.531,-0.038 17.411,0 31.527,14.115 31.527,31.527 0,1.287 -0.079,2.556 -0.229,3.803 L 9.387,17.205 Z"
                   style="fill:#000000;fill-opacity:1;fill-rule:nonzero;stroke:none"
                   id="path116"
                   inkscape:connector-curvature="0" /></g></g></g></g><g
           id="g124"
           transform="translate(470.3288,293.219)"><path
             d="M 0,0 C 0,-0.059 0.001,-0.12 0.001,-0.179 0.001,-0.11 0,-0.041 0.002,0.03 0.001,0.02 0.001,0.01 0,0"
             style="fill:#000000;fill-opacity:1;fill-rule:nonzero;stroke:none"
             id="path126"
             inkscape:connector-curvature="0" /></g><g
           id="g128"
           transform="translate(440.2529,341.8662)"><path
             d="M 0,0 -1.428,-5.673 C 0.595,-1.666 3.808,1.349 7.498,4.007 4.8,0.873 2.341,-2.261 0.833,-5.395 3.372,-1.825 6.784,0.159 10.631,1.468 5.514,-3.094 1.452,-7.99 -1.642,-12.909 l -2.46,1.071 C -3.666,-7.91 -2.182,-3.888 0,0 Z"
             style="fill:#68b030;fill-opacity:1;fill-rule:nonzero;stroke:none"
             id="path130"
             inkscape:connector-curvature="0" /></g><g
           id="g132"
           transform="translate(433.6848,331.0713)"><path
             d="m 0,0 4.681,-1.942 c 0,-1.19 -0.097,-4.821 0.648,-5.892 7.785,-10.027 6.475,-30.125 -1.577,-30.641 -12.263,0 -16.94,8.33 -16.94,15.987 0,6.982 8.371,11.623 13.369,15.749 C 1.451,-5.628 1.23,-3.174 0,0 Z"
             style="fill:#f5f8dd;fill-opacity:1;fill-rule:nonzero;stroke:none"
             id="path134"
             inkscape:connector-curvature="0" /></g><g
           id="g136"
           transform="translate(438.3674,329.1992)"><path
             d="m 0,0 1.687,-0.861 c -0.159,-1.11 0.079,-3.57 1.19,-4.204 4.919,-3.055 9.56,-6.387 11.385,-9.719 C 20.768,-26.527 9.7,-37.396 0.14,-36.365 5.336,-32.517 6.844,-24.623 4.9,-16.014 4.107,-12.642 2.877,-9.587 0.695,-6.136 -0.25,-4.442 0.08,-2.341 0,0 Z"
             style="fill:#7d4698;fill-opacity:1;fill-rule:nonzero;stroke:none"
             id="path138"
             inkscape:connector-curvature="0" /></g><g
           id="g140"
           transform="translate(437.5553,329.4891)"><path
             d="m 0,0 3.491,-0.476 c -1.032,-3.412 2.023,-5.792 3.015,-6.347 2.221,-1.23 4.364,-2.5 6.07,-4.047 3.213,-2.935 5.038,-7.061 5.038,-11.425 0,-4.323 -1.984,-8.489 -5.316,-11.266 -3.134,-2.618 -7.458,-3.729 -11.663,-3.729 -2.618,0 -4.959,0.119 -7.498,0.953 -5.791,1.943 -10.115,6.902 -10.472,12.853 -0.318,4.641 0.714,8.172 4.324,11.861 1.864,1.944 5.633,4.165 8.212,5.95 1.269,0.873 2.618,3.333 0.039,7.974 l 0.516,0.397 3.822,-2.56 -3.227,1.33 c 0.278,-0.397 1.032,-2.182 1.19,-2.698 0.357,-1.467 0.199,-2.896 -0.119,-3.53 -1.626,-2.936 -4.403,-3.729 -6.426,-5.395 -3.57,-2.936 -7.458,-5.276 -7.022,-13.329 0.199,-3.967 3.293,-8.807 7.934,-11.068 2.618,-1.27 5.633,-1.785 8.688,-1.944 2.737,-0.119 7.974,1.507 10.83,3.888 3.054,2.538 4.76,6.386 4.76,10.313 0,3.968 -1.587,7.736 -4.562,10.394 -1.706,1.547 -4.522,3.412 -6.267,4.404 -1.746,0.991 -3.928,3.768 -3.214,6.426 z"
             style="fill:#000000;fill-opacity:1;fill-rule:nonzero;stroke:none"
             id="path142"
             inkscape:connector-curvature="0" /></g><g
           id="g144"
           transform="translate(436.4843,323.6179)"><path
             d="m 0,0 c -0.357,-1.825 -0.754,-5.117 -2.341,-6.347 -0.674,-0.476 -1.349,-0.952 -2.062,-1.428 -2.857,-1.944 -5.713,-3.769 -7.022,-8.45 -0.278,-0.992 -0.039,-2.063 0.199,-3.055 0.714,-2.856 2.737,-5.95 4.324,-7.775 0,-0.079 0.317,-0.278 0.317,-0.357 1.309,-1.547 1.706,-1.984 6.665,-3.094 l -0.119,-0.556 c -2.976,0.794 -5.435,1.507 -6.982,3.293 0,0.04 -0.278,0.317 -0.278,0.317 -1.666,1.905 -3.69,5.078 -4.443,8.053 -0.278,1.191 -0.516,2.103 -0.199,3.333 1.349,4.839 4.285,6.744 7.26,8.767 0.675,0.436 1.468,0.833 2.103,1.349 C -1.349,-5.038 -0.675,-2.261 0,0"
             style="fill:#000000;fill-opacity:1;fill-rule:nonzero;stroke:none"
             id="path146"
             inkscape:connector-curvature="0" /></g><g
           id="g148"
           transform="translate(437.7529,316.0809)"><path
             d="m 0,0 c 0.04,-2.063 -0.162,-3.098 0.354,-4.566 0.317,-0.872 1.389,-2.063 1.707,-3.213 0.436,-1.547 0.911,-3.253 0.871,-4.284 0,-1.191 -0.075,-3.411 -0.59,-5.792 -0.393,-1.966 -1.299,-3.654 -2.823,-4.611 -1.561,0.322 -3.393,0.87 -4.475,1.797 -2.103,1.825 -3.965,4.876 -4.203,7.534 -0.198,2.182 1.822,5.4 4.639,7.026 2.38,1.389 2.933,2.971 3.449,5.51 -0.714,-2.222 -1.385,-4.084 -3.685,-5.274 -3.333,-1.745 -5.042,-4.675 -4.884,-7.452 0.238,-3.57 1.668,-5.989 4.484,-7.934 1.19,-0.833 3.414,-1.713 4.802,-1.951 v 0.181 c 1.053,0.198 2.416,1.927 3.095,4.267 0.595,2.102 0.83,4.793 0.79,6.499 C 3.491,-11.272 3.054,-9.124 2.26,-7.18 1.824,-6.109 1.154,-5.038 0.717,-4.284 0.242,-3.53 0.238,-1.904 0,0"
             style="fill:#000000;fill-opacity:1;fill-rule:nonzero;stroke:none"
             id="path150"
             inkscape:connector-curvature="0" /></g><g
           id="g152"
           transform="translate(437.5169,308.3018)"><path
             d="m 0,0 c 0.04,-1.388 0.597,-3.167 0.835,-4.992 0.199,-1.349 0.113,-2.704 0.073,-3.894 -0.039,-1.378 -0.498,-3.847 -1.126,-5.047 -0.591,0.271 -0.823,0.58 -1.207,1.08 -0.476,0.674 -0.799,1.349 -1.117,2.142 -0.237,0.595 -0.516,1.276 -0.635,2.07 -0.159,1.19 -0.114,3.051 1.235,4.956 1.031,1.507 1.267,1.622 1.624,3.367 -0.476,-1.547 -0.831,-1.704 -1.942,-3.013 -1.23,-1.429 -1.434,-3.532 -1.434,-5.238 0,-0.714 0.284,-1.507 0.562,-2.26 0.318,-0.794 0.59,-1.584 1.026,-2.179 0.656,-0.964 1.495,-1.513 1.906,-1.615 0.003,-0.001 0.007,0 0.009,0 0.009,-0.002 0.019,-0.008 0.028,-0.009 v 0.045 c 0.769,0.858 1.232,1.711 1.388,2.569 0.199,1.031 0.244,2.065 0.363,3.295 0.119,1.031 0.033,2.421 -0.245,3.849 C 0.947,-3.089 0.278,-1.269 0,0 Z"
             style="fill:#000000;fill-opacity:1;fill-rule:nonzero;stroke:none"
             id="path154"
             inkscape:connector-curvature="0" /></g><g
           id="g156"
           transform="translate(437.6346,325.284)"><path
             d="m 0,0 c 0.04,-2.063 0.198,-5.911 0.754,-7.418 0.158,-0.516 1.626,-2.777 2.657,-5.514 0.714,-1.905 0.873,-3.65 0.992,-4.166 0.476,-2.261 -0.119,-6.069 -0.912,-9.679 -0.397,-1.944 -1.746,-4.364 -3.293,-5.316 l -0.317,-0.555 c 0.873,0.04 3.015,2.142 3.768,4.76 1.27,4.443 1.786,6.506 1.191,11.425 -0.08,0.477 -0.278,2.103 -1.032,3.848 -1.11,2.658 -2.697,5.197 -2.895,5.713 C 0.555,-6.069 0.079,-2.459 0,0"
             style="fill:#000000;fill-opacity:1;fill-rule:nonzero;stroke:none"
             id="path158"
             inkscape:connector-curvature="0" /></g><g
           id="g160"
           transform="translate(438.3789,328.1052)"><path
             d="m 0,0 c -0.118,-2.12 -0.149,-2.901 0.247,-4.448 0.437,-1.705 2.658,-4.165 3.571,-6.982 1.745,-5.395 1.309,-12.456 0.039,-17.97 -0.476,-1.943 -2.737,-4.76 -4.998,-5.672 l 1.666,-0.397 c 0.912,0.04 3.253,2.221 4.165,4.72 1.468,3.928 1.746,8.609 1.151,13.528 -0.04,0.476 -0.834,4.721 -1.587,6.506 C 3.182,-8.057 1.278,-5.677 1.08,-5.162 0.723,-4.289 -0.06,-2.477 0,0"
             style="fill:#000000;fill-opacity:1;fill-rule:nonzero;stroke:none"
             id="path162"
             inkscape:connector-curvature="0" /></g><path
           d="m 437.118,329.597 h 0.16 v -36.604 h -0.16 z"
           style="fill:#000000;fill-opacity:1;fill-rule:nonzero;stroke:none"
           id="path164"
           inkscape:connector-curvature="0" /><g
           id="g166"
           transform="translate(233.3856,341.8662)"><path
             d="M 0,0 -1.428,-5.673 C 0.595,-1.666 3.808,1.349 7.498,4.007 4.8,0.873 2.341,-2.261 0.833,-5.395 3.372,-1.825 6.784,0.159 10.631,1.468 5.514,-3.094 1.452,-7.99 -1.642,-12.909 l -2.46,1.071 C -3.666,-7.91 -2.182,-3.888 0,0 Z"
             style="fill:#68b030;fill-opacity:1;fill-rule:nonzero;stroke:none"
             id="path168"
             inkscape:connector-curvature="0" /></g><g
           id="g170"
           transform="translate(226.8176,331.0713)"><path
             d="m 0,0 4.681,-1.942 c 0,-1.19 -0.097,-4.821 0.648,-5.892 7.785,-10.027 6.475,-30.125 -1.577,-30.641 -12.263,0 -16.94,8.33 -16.94,15.987 0,6.982 8.371,11.623 13.369,15.749 C 1.451,-5.628 1.23,-3.174 0,0 Z"
             style="fill:#f5f8dd;fill-opacity:1;fill-rule:nonzero;stroke:none"
             id="path172"
             inkscape:connector-curvature="0" /></g><g
           id="g174"
           transform="translate(231.5002,329.1992)"><path
             d="m 0,0 1.687,-0.861 c -0.159,-1.11 0.079,-3.57 1.19,-4.204 4.919,-3.055 9.56,-6.387 11.385,-9.719 C 20.768,-26.527 9.7,-37.396 0.14,-36.365 5.336,-32.517 6.844,-24.623 4.9,-16.014 4.107,-12.642 2.877,-9.587 0.695,-6.136 -0.25,-4.442 0.08,-2.341 0,0 Z"
             style="fill:#7d4698;fill-opacity:1;fill-rule:nonzero;stroke:none"
             id="path176"
             inkscape:connector-curvature="0" /></g><g
           id="g178"
           transform="translate(230.688,329.4891)"><path
             d="m 0,0 3.491,-0.476 c -1.032,-3.412 2.023,-5.792 3.015,-6.347 2.221,-1.23 4.364,-2.5 6.07,-4.047 3.213,-2.935 5.038,-7.061 5.038,-11.425 0,-4.323 -1.984,-8.489 -5.316,-11.266 -3.134,-2.618 -7.458,-3.729 -11.663,-3.729 -2.618,0 -4.959,0.119 -7.498,0.953 -5.791,1.943 -10.115,6.902 -10.472,12.853 -0.318,4.641 0.714,8.172 4.324,11.861 1.864,1.944 5.633,4.165 8.212,5.95 1.269,0.873 2.618,3.333 0.039,7.974 l 0.516,0.397 3.822,-2.56 -3.227,1.33 c 0.278,-0.397 1.032,-2.182 1.19,-2.698 0.357,-1.467 0.199,-2.896 -0.119,-3.53 -1.626,-2.936 -4.403,-3.729 -6.426,-5.395 -3.57,-2.936 -7.458,-5.276 -7.022,-13.329 0.199,-3.967 3.293,-8.807 7.934,-11.068 2.618,-1.27 5.633,-1.785 8.688,-1.944 2.737,-0.119 7.974,1.507 10.83,3.888 3.054,2.538 4.76,6.386 4.76,10.313 0,3.968 -1.587,7.736 -4.562,10.394 -1.706,1.547 -4.522,3.412 -6.267,4.404 -1.746,0.991 -3.928,3.768 -3.214,6.426 z"
             style="fill:#000000;fill-opacity:1;fill-rule:nonzero;stroke:none"
             id="path180"
             inkscape:connector-curvature="0" /></g><g
           id="g182"
           transform="translate(229.6171,323.6179)"><path
             d="m 0,0 c -0.357,-1.825 -0.754,-5.117 -2.341,-6.347 -0.674,-0.476 -1.349,-0.952 -2.062,-1.428 -2.857,-1.944 -5.713,-3.769 -7.022,-8.45 -0.278,-0.992 -0.039,-2.063 0.199,-3.055 0.714,-2.856 2.737,-5.95 4.324,-7.775 0,-0.079 0.317,-0.278 0.317,-0.357 1.309,-1.547 1.706,-1.984 6.665,-3.094 l -0.12,-0.556 c -2.975,0.794 -5.434,1.507 -6.981,3.293 0,0.04 -0.278,0.317 -0.278,0.317 -1.666,1.905 -3.69,5.078 -4.443,8.053 -0.278,1.191 -0.516,2.103 -0.199,3.333 1.349,4.839 4.285,6.744 7.26,8.767 0.675,0.436 1.468,0.833 2.103,1.349 C -1.349,-5.038 -0.675,-2.261 0,0"
             style="fill:#000000;fill-opacity:1;fill-rule:nonzero;stroke:none"
             id="path184"
             inkscape:connector-curvature="0" /></g><g
           id="g186"
           transform="translate(230.8856,316.0809)"><path
             d="m 0,0 c 0.04,-2.063 -0.162,-3.098 0.354,-4.566 0.317,-0.872 1.389,-2.063 1.707,-3.213 0.436,-1.547 0.911,-3.253 0.871,-4.284 0,-1.191 -0.075,-3.411 -0.59,-5.792 -0.393,-1.966 -1.299,-3.654 -2.823,-4.611 -1.561,0.322 -3.393,0.87 -4.475,1.797 -2.103,1.825 -3.965,4.876 -4.203,7.534 -0.198,2.182 1.822,5.4 4.639,7.026 2.38,1.389 2.933,2.971 3.449,5.51 -0.714,-2.222 -1.385,-4.084 -3.685,-5.274 -3.333,-1.745 -5.042,-4.675 -4.884,-7.452 0.238,-3.57 1.668,-5.989 4.484,-7.934 1.19,-0.833 3.414,-1.713 4.802,-1.951 v 0.181 c 1.053,0.198 2.416,1.927 3.095,4.267 0.595,2.102 0.83,4.793 0.79,6.499 C 3.491,-11.272 3.054,-9.124 2.26,-7.18 1.824,-6.109 1.154,-5.038 0.717,-4.284 0.242,-3.53 0.238,-1.904 0,0"
             style="fill:#000000;fill-opacity:1;fill-rule:nonzero;stroke:none"
             id="path188"
             inkscape:connector-curvature="0" /></g><g
           id="g190"
           transform="translate(230.6496,308.3018)"><path
             d="m 0,0 c 0.04,-1.388 0.597,-3.167 0.835,-4.992 0.199,-1.349 0.112,-2.704 0.073,-3.894 -0.039,-1.378 -0.498,-3.847 -1.126,-5.047 -0.591,0.271 -0.823,0.58 -1.207,1.08 -0.476,0.674 -0.799,1.349 -1.117,2.142 -0.237,0.595 -0.516,1.276 -0.635,2.07 -0.159,1.19 -0.114,3.051 1.234,4.956 1.032,1.507 1.268,1.622 1.625,3.367 -0.476,-1.547 -0.831,-1.704 -1.942,-3.013 -1.23,-1.429 -1.434,-3.532 -1.434,-5.238 0,-0.714 0.284,-1.507 0.562,-2.26 0.318,-0.794 0.59,-1.584 1.026,-2.179 0.656,-0.964 1.495,-1.513 1.906,-1.615 0.003,-0.001 0.007,0 0.009,0 0.009,-0.002 0.019,-0.008 0.028,-0.009 v 0.045 c 0.769,0.858 1.232,1.711 1.388,2.569 0.199,1.031 0.244,2.065 0.363,3.295 0.119,1.031 0.033,2.421 -0.245,3.849 C 0.947,-3.089 0.278,-1.269 0,0 Z"
             style="fill:#000000;fill-opacity:1;fill-rule:nonzero;stroke:none"
             id="path192"
             inkscape:connector-curvature="0" /></g><g
           id="g194"
           transform="translate(230.7673,325.284)"><path
             d="m 0,0 c 0.04,-2.063 0.198,-5.911 0.754,-7.418 0.158,-0.516 1.626,-2.777 2.657,-5.514 0.715,-1.905 0.873,-3.65 0.992,-4.166 0.476,-2.261 -0.119,-6.069 -0.912,-9.679 -0.397,-1.944 -1.746,-4.364 -3.293,-5.316 l -0.317,-0.555 c 0.873,0.04 3.015,2.142 3.768,4.76 1.27,4.443 1.786,6.506 1.191,11.425 -0.08,0.477 -0.278,2.103 -1.032,3.848 -1.11,2.658 -2.697,5.197 -2.895,5.713 C 0.555,-6.069 0.079,-2.459 0,0 Z"
             style="fill:#000000;fill-opacity:1;fill-rule:nonzero;stroke:none"
             id="path196"
             inkscape:connector-curvature="0" /></g><g
           id="g198"
           transform="translate(231.5117,328.1052)"><path
             d="m 0,0 c -0.118,-2.12 -0.149,-2.901 0.247,-4.448 0.437,-1.705 2.658,-4.165 3.571,-6.982 1.745,-5.395 1.309,-12.456 0.039,-17.97 -0.476,-1.943 -2.737,-4.76 -4.998,-5.672 l 1.666,-0.397 c 0.912,0.04 3.253,2.221 4.165,4.72 1.468,3.928 1.746,8.609 1.151,13.528 -0.04,0.476 -0.834,4.721 -1.587,6.506 C 3.182,-8.057 1.278,-5.677 1.08,-5.162 0.723,-4.289 -0.06,-2.477 0,0 Z"
             style="fill:#000000;fill-opacity:1;fill-rule:nonzero;stroke:none"
             id="path200"
             inkscape:connector-curvature="0" /></g><path
           d="m 230.25,329.597 h 0.16 v -36.604 h -0.16 z"
           style="fill:#000000;fill-opacity:1;fill-rule:nonzero;stroke:none"
           id="path202"
           inkscape:connector-curvature="0" /><g
           id="g204"
           transform="translate(318.0428,295.3377)"><path
             d="m 0,0 c -4.585,2.234 -7.642,7.015 -7.838,10.934 -0.431,7.955 3.41,10.267 6.937,13.167 1.999,1.646 4.742,2.43 6.348,5.33 0.314,0.627 0.471,2.038 0.118,3.488 -0.157,0.509 -0.902,2.273 -1.176,2.665 L 6.607,34.67 c 0,-0.002 0,-0.003 0,-0.004 l 2.191,-0.954 c 0.01,-0.34 0.012,-0.673 0.01,-1.002 10e-4,0.02 -10e-4,0.037 -10e-4,0.056 -0.116,-2.094 -0.147,-2.865 0.245,-4.393 0.431,-1.685 2.626,-4.115 3.527,-6.898 1.724,-5.329 1.293,-12.305 0.039,-17.752 -0.22,-0.9 -0.836,-1.985 -1.649,-2.981 0.286,0.524 0.536,1.09 0.708,1.688 1.255,4.389 1.764,6.427 1.176,11.286 -0.078,0.471 -0.274,2.077 -1.019,3.802 -1.097,2.625 -2.665,5.133 -2.86,5.643 -0.353,0.823 -0.824,4.389 -0.902,6.818 0.039,-2.037 0.196,-5.839 0.745,-7.328 0.157,-0.509 1.606,-2.743 2.625,-5.447 0.706,-1.881 0.862,-3.606 0.98,-4.115 C 12.892,10.855 12.304,7.093 11.52,3.527 11.198,1.948 10.236,0.063 9.056,-1.084 9.051,-1.088 9.047,-1.091 9.042,-1.094 c 0.723,0.747 1.427,1.972 1.855,3.447 0.588,2.077 0.82,4.735 0.78,6.42 -0.039,0.98 -0.471,3.102 -1.255,5.022 -0.431,1.058 -1.093,2.116 -1.525,2.86 -0.469,0.746 -0.473,2.352 -0.708,4.233 0.039,-2.038 -0.16,-3.06 0.35,-4.511 0.313,-0.862 1.372,-2.037 1.686,-3.174 0.43,-1.529 0.9,-3.214 0.86,-4.232 0,-1.176 -0.073,-3.37 -0.583,-5.721 C 10.121,1.343 9.249,-0.294 7.794,-1.247 v 0.04 C 8.555,-0.359 9.012,0.483 9.166,1.331 9.362,2.35 9.408,3.371 9.525,4.586 9.642,5.605 9.557,6.977 9.283,8.388 8.891,10.151 8.23,11.949 7.956,13.203 7.995,11.831 8.546,10.074 8.781,8.271 8.977,6.938 8.892,5.6 8.852,4.424 8.814,3.063 8.361,0.624 7.741,-0.562 7.156,-0.293 6.928,0.012 6.548,0.506 6.078,1.172 5.758,1.838 5.445,2.622 5.21,3.21 4.935,3.883 4.817,4.666 4.661,5.842 4.705,7.681 6.037,9.562 7.056,11.052 7.289,11.165 7.642,12.889 7.171,11.361 6.821,11.205 5.723,9.912 4.508,8.501 4.306,6.423 4.306,4.738 4.306,4.032 4.588,3.25 4.862,2.505 5.176,1.721 5.444,0.941 5.876,0.353 6.523,-0.6 7.353,-1.142 7.759,-1.243 c 0.002,-10e-4 0.006,0.001 0.008,0 C 7.775,-1.245 7.783,-1.248 7.79,-1.251 7.764,-1.268 7.741,-1.289 7.714,-1.306 6.172,-0.988 4.361,-0.446 3.293,0.47 1.216,2.272 -0.624,5.287 -0.859,7.912 c -0.195,2.156 1.8,5.334 4.582,6.941 2.352,1.372 2.898,2.935 3.408,5.443 C 6.425,18.101 5.763,16.262 3.49,15.086 0.198,13.362 -1.491,10.467 -1.334,7.724 -1.099,4.197 0.313,1.807 3.096,-0.113 3.913,-0.685 5.22,-1.275 6.403,-1.663 2.09,-0.667 1.667,-0.208 0.431,1.254 c 0,0.078 -0.314,0.274 -0.314,0.352 -1.567,1.803 -3.566,4.86 -4.271,7.682 -0.236,0.979 -0.471,2.037 -0.197,3.017 1.293,4.625 4.115,6.427 6.937,8.347 0.705,0.47 1.371,0.941 2.038,1.411 1.567,1.215 1.959,4.468 2.312,6.27 C 6.269,26.1 5.603,23.356 4.388,22.455 3.762,21.946 2.978,21.554 2.312,21.123 c -2.94,-1.999 -5.84,-3.88 -7.172,-8.661 -0.313,-1.215 -0.078,-2.116 0.196,-3.292 0.744,-2.939 2.743,-6.074 4.389,-7.955 0,0 0.274,-0.275 0.274,-0.314 C 0.743,0.043 1.702,-0.562 2.827,-1.05 1.848,-0.777 0.899,-0.436 0,0 m 20.417,23.396 c -1.685,1.528 -3.802,2.782 -5.996,3.997 -0.98,0.549 -3.998,2.9 -2.979,6.27 L 9.266,33.96 c 3.028,4.741 6.962,9.453 11.895,13.851 -3.801,-1.294 -7.171,-3.253 -9.679,-6.78 1.489,3.096 3.918,6.192 6.583,9.288 -3.644,-2.626 -6.819,-5.604 -8.817,-9.562 l 1.411,5.604 C 8.546,42.596 7.102,38.704 6.64,34.897 L 3.801,36.799 3.292,36.407 C 5.839,31.822 4.507,29.392 3.253,28.53 0.705,26.766 -3.018,24.572 -4.86,22.651 -8.426,19.007 -9.445,15.519 -9.131,10.934 -8.779,5.055 -4.507,0.157 1.214,-1.764 c 2.508,-0.823 4.821,-0.94 7.407,-0.94 4.154,0 8.426,1.097 11.522,3.684 3.292,2.743 5.251,6.858 5.251,11.129 0,4.311 -1.803,8.387 -4.977,11.287"
             style="fill:#231f20;fill-opacity:1;fill-rule:nonzero;stroke:none"
             id="path206"
             inkscape:connector-curvature="0" /></g></g></g><text
       transform="matrix(1,0,0,-1,407.1309,268.0078)"
       style="font-variant:normal;font-weight:normal;font-stretch:normal;font-size:12.8803997px;font-family:'Source Sans Pro';-inkscape-font-specification:SourceSansPro-Regular;writing-mode:lr-tb;fill:#6d6e71;fill-opacity:1;fill-rule:nonzero;stroke:none"
       id="text210"><tspan
         x="0 6.9296551 13.975234 21.123856 25.463263 32.444439 35.613018 42.761639 45.36348 48.686623 54.289597 61.270775"
         y="0"
         sodipodi:role="line"
         id="tspan208">Android Icon</tspan></text>
<g
       id="g212"><g
         id="g214"
         clip-path="url(#clipPath218)"><g
           id="g220"
           transform="translate(255.8267,160.8149)"><path
             d="m 0,0 c 0,-13.399 -10.862,-24.261 -24.261,-24.261 -13.399,0 -24.261,10.862 -24.261,24.261 0,13.399 10.862,24.261 24.261,24.261 C -10.862,24.261 0,13.399 0,0"
             style="fill:#7d4698;fill-opacity:1;fill-rule:nonzero;stroke:none"
             id="path222"
             inkscape:connector-curvature="0" /></g></g></g><text
       transform="matrix(1,0,0,-1,271.5659,175.5977)"
       style="font-variant:normal;font-weight:normal;font-stretch:normal;font-size:10px;font-family:'Source Sans Pro';-inkscape-font-specification:SourceSansPro-Regular;writing-mode:lr-tb;fill:#6d6e71;fill-opacity:1;fill-rule:nonzero;stroke:none"
       id="text232"><tspan
         x="0 5.71 9.1800003 11.64 19.93 25.049999 28.709999 33.380001 35.400002 41.060001 46.48 49.029999 54.450001"
         y="0"
         sodipodi:role="line"
         id="tspan224">Primary Color</tspan><tspan
         x="0 5.7600002 11.88 17.709999 20.200001 30.299999 35.27 40.240002 45.209999 47.700001 49.720001 54.689999 59.66 62.150002 64.169998 69.139999 74.110001"
         y="12"
         sodipodi:role="line"
         id="tspan226">RGB: 125, 70, 152</tspan><tspan
         x="0 6.4699998 11.69 16.77 19.26 31.379999 36.349998 41.32 46.869999 51.84 56.810001 61.779999"
         y="24"
         sodipodi:role="line"
         id="tspan228">HEX: #7d4698</tspan><tspan
         x="0 5.6599998 12.88 17.59 23.33 25.82 31.879999 36.849998 41.82 44.310001 46.330002 51.299999 56.27 58.759998 60.779999 65.75 68.239998 70.260002"
         y="36"
         sodipodi:role="line"
         id="tspan230">CMYK: 60, 86, 2, 0</tspan></text>
<g
       id="g234"><g
         id="g236"
         clip-path="url(#clipPath240)"><g
           id="g242"
           transform="translate(434.2309,160.8149)"><path
             d="m 0,0 c 0,-13.399 -10.862,-24.261 -24.261,-24.261 -13.399,0 -24.261,10.862 -24.261,24.261 0,13.399 10.862,24.261 24.261,24.261 C -10.862,24.261 0,13.399 0,0"
             style="fill:#68b030;fill-opacity:1;fill-rule:nonzero;stroke:none"
             id="path244"
             inkscape:connector-curvature="0" /></g></g></g><text
       transform="matrix(1,0,0,-1,449.9702,175.5977)"
       style="font-variant:normal;font-weight:normal;font-stretch:normal;font-size:10px;font-family:'Source Sans Pro';-inkscape-font-specification:SourceSansPro-Regular;writing-mode:lr-tb;fill:#6d6e71;fill-opacity:1;fill-rule:nonzero;stroke:none"
       id="text268"><tspan
         x="0 5.29 10.25 14.6 20.02 25.49 31.040001 36.16 39.819 44.488998 46.508999 52.168999 57.589001 60.139 65.558998"
         y="0"
         sodipodi:role="line"
         id="tspan246">Secondary Color</tspan><tspan
         x="0 5.7600002 11.88 17.709999 20.200001 30.299999 35.27 40.240002 45.209999 47.700001 49.720001 54.689999 59.66 64.629997 67.120003 69.139999 74.110001"
         y="12"
         sodipodi:role="line"
         id="tspan248">RGB: 104, 176. 48</tspan><tspan
         x="0 6.4699998 11.69 16.77 19.26 31.379999 36.349998 41.32 46.290001 51.84 56.810001 61.779999"
         y="24"
         sodipodi:role="line"
         id="tspan250">HEX: #68b030</tspan><tspan
         x="0 5.6599998 12.88 17.59 23.33 25.82 31.879999 36.849998 41.82 44.310001 46.330002 51.299999 53.790001 55.810001 60.779999 65.75 70.720001 73.209999 75.230003"
         y="36"
         sodipodi:role="line"
         id="tspan252">CMYK: 65, 7, 100, 0</tspan><tspan
         x="-409.35001 -404.04001 -398.60001 -393.64001 -391.62 -386.20001 -380.73001 -378.26999 -372.85001 -367.38 -365.35999 -360.23999 -357.69 -352.26999 -346.79999 -341.84 -339.35001 -337.32999 -330.97 -326.78 -321.82001 -319.79999 -316.42001 -310.98001 -308.51999 -304.32999"
         y="-177.25"
         sodipodi:role="line"
         id="tspan254">The onion alone. Use this </tspan><tspan
         x="-417.29999 -411.88 -406.41 -403.85999 -399.19 -397.17001 -389.98999 -384.54999 -379.59 -374.12 -372.10001 -368.72 -363.28 -358.32001 -356.29999 -351.64999 -346.23001 -342.76001 -340.73999 -338.28 -334.09 -332.07001 -327.51001 -324.95999 -320.14001 -315.01999 -311.54999 -309 -304.32999"
         y="-165.25"
         sodipodi:role="line"
         id="tspan256">only when the Tor is clearly </tspan><tspan
         x="-401.03 -396.35999 -393.89999 -389.70999 -387.25 -381.70001 -379.14999 -374.19 -372.17001 -366.75 -363.28 -361.26001 -355.82001 -350.70001 -346.51001 -344.48999 -338.94 -333.98001 -329.01999 -323.54999 -321.53 -314.39001 -309.42999 -306.88 -304.32999"
         y="-153.25"
         sodipodi:role="line"
         id="tspan258">visible or has been well </tspan><tspan
         x="-425.85001 -420.89001 -416.70001 -413.5 -408.38 -402.82999 -400.28 -397.82001 -393.63 -388.19 -383.23001 -377.67999 -375.66 -370.70001 -368.14999 -363.95999 -358.95001 -351.76999 -346.32999 -341.37 -338.00101 -333.04099 -331.021 -325.60101 -320.13101 -318.11099 -314.73099 -309.29099 -304.33099"
         y="-141.25"
         sodipodi:role="line"
         id="tspan260">established elsewhere on the </tspan><tspan
         x="-393.56 -388.14999 -383.03 -378.13 -373.17001 -371.14999 -365.73001 -362.26001 -360.23999 -357.78 -352.31 -350.29001 -346.91 -341.47 -336.51001 -334.48999 -328.94 -323.98001 -319.79001 -317.32999 -312.29001 -306.82001 -304.32999"
         y="-129.25"
         sodipodi:role="line"
         id="tspan262">page or in the design. </tspan><tspan
         x="-370.98001 -367.95001 -360.14001 -354.70001 -349.73999 -344.26999 -342.25 -339.79001 -334.32001 -332.29999 -326.75 -321.32999 -315.89001 -310.34 -306.82001 -304.32999"
         y="-105.25"
         sodipodi:role="line"
         id="tspan264">(When in doubt, </tspan><tspan
         x="-373.39001 -367.95001 -363.76001 -358.79999 -356.78 -353.39999 -347.95999 -343 -340.98001 -338.20999 -332.76999 -330.22 -327.67001 -325.64999 -323.10001 -317.67999 -312.78 -307.35999"
         y="-93.25"
         sodipodi:role="line"
         id="tspan266">use the full logo)</tspan></text>
</g></svg>