<?xml version="1.0" encoding="UTF-8" standalone="no"?>
<!-- Created with Inkscape (http://www.inkscape.org/) -->

<svg
   xmlns:dc="http://purl.org/dc/elements/1.1/"
   xmlns:cc="http://creativecommons.org/ns#"
   xmlns:rdf="http://www.w3.org/1999/02/22-rdf-syntax-ns#"
   xmlns:svg="http://www.w3.org/2000/svg"
   xmlns="http://www.w3.org/2000/svg"
   xmlns:sodipodi="http://sodipodi.sourceforge.net/DTD/sodipodi-0.dtd"
   xmlns:inkscape="http://www.inkscape.org/namespaces/inkscape"
   version="1.1"
   id="svg2"
   xml:space="preserve"
   width="793.70667"
   height="1122.52"
   viewBox="0 0 793.70667 1122.52"
   sodipodi:docname="Tor Style Guide page 1.svg"
   inkscape:version="0.92.0 r"><title
     id="title4622">Tor Style Guide</title><metadata
     id="metadata8"><rdf:RDF><cc:Work
         rdf:about=""><dc:format>image/svg+xml</dc:format><dc:type
           rdf:resource="http://purl.org/dc/dcmitype/StillImage" /><dc:title>Tor Style Guide</dc:title><cc:license
           rdf:resource="http://creativecommons.org/licenses/by/4.0/" /><dc:date>2 October 2016</dc:date><dc:creator><cc:Agent><dc:title>Ura Design</dc:title></cc:Agent></dc:creator><dc:rights><cc:Agent><dc:title>Some rights reserved - Licensed under CC-BY license</dc:title></cc:Agent></dc:rights><dc:source>www.ura.design</dc:source><dc:subject><rdf:Bag><rdf:li>Tor Style Guide</rdf:li></rdf:Bag></dc:subject><dc:contributor><cc:Agent><dc:title>Elio Qoshi</dc:title></cc:Agent></dc:contributor></cc:Work><cc:License
         rdf:about="http://creativecommons.org/licenses/by/4.0/"><cc:permits
           rdf:resource="http://creativecommons.org/ns#Reproduction" /><cc:permits
           rdf:resource="http://creativecommons.org/ns#Distribution" /><cc:requires
           rdf:resource="http://creativecommons.org/ns#Notice" /><cc:requires
           rdf:resource="http://creativecommons.org/ns#Attribution" /><cc:permits
           rdf:resource="http://creativecommons.org/ns#DerivativeWorks" /></cc:License></rdf:RDF></metadata><defs
     id="defs6"><clipPath
       clipPathUnits="userSpaceOnUse"
       id="clipPath18"><path
         d="M 0,841.89 H 595.28 V 0 H 0 Z"
         id="path16"
         inkscape:connector-curvature="0" /></clipPath><clipPath
       clipPathUnits="userSpaceOnUse"
       id="clipPath80"><path
         d="M 0,841.89 H 595.28 V 0 H 0 Z"
         id="path78"
         inkscape:connector-curvature="0" /></clipPath></defs><sodipodi:namedview
     pagecolor="#ffffff"
     bordercolor="#666666"
     borderopacity="1"
     objecttolerance="10"
     gridtolerance="10"
     guidetolerance="10"
     inkscape:pageopacity="0"
     inkscape:pageshadow="2"
     inkscape:window-width="1366"
     inkscape:window-height="714"
     id="namedview4"
     showgrid="false"
     inkscape:zoom="0.42048248"
     inkscape:cx="156.6888"
     inkscape:cy="314.57325"
     inkscape:window-x="0"
     inkscape:window-y="0"
     inkscape:window-maximized="1"
     inkscape:current-layer="g10" /><g
     id="g10"
     inkscape:groupmode="layer"
     inkscape:label="Styleguide 1.2 (2)"
     transform="matrix(1.3333333,0,0,-1.3333333,0,1122.52)"><g
       id="g12"><g
         id="g14"
         clip-path="url(#clipPath18)"><g
           id="g20"
           transform="translate(116.1633,795.9523)"><path
             d="M 0,0 -2.197,-8.725 C 0.915,-2.563 5.858,2.075 11.533,6.163 7.383,1.343 3.6,-3.478 1.281,-8.299 5.187,-2.807 10.435,0.244 16.353,2.258 8.482,-4.76 2.233,-12.29 -2.526,-19.856 l -3.783,1.647 C -5.639,-12.168 -3.356,-5.98 0,0 Z"
             style="fill:#68b030;fill-opacity:1;fill-rule:nonzero;stroke:none"
             id="path22"
             inkscape:connector-curvature="0" /></g><g
           id="g24"
           transform="translate(106.0604,779.3477)"><path
             d="m 0,0 7.201,-2.987 c 0,-1.831 -0.149,-7.416 0.996,-9.063 11.975,-15.423 9.96,-46.339 -2.426,-47.132 -18.862,0 -26.056,12.814 -26.056,24.591 0,10.739 12.875,17.879 20.564,24.225 C 2.231,-8.658 1.892,-4.882 0,0 Z"
             style="fill:#f5f8dd;fill-opacity:1;fill-rule:nonzero;stroke:none"
             id="path26"
             inkscape:connector-curvature="0" /></g><g
           id="g28"
           transform="translate(113.2632,776.4679)"><path
             d="m 0,0 2.595,-1.324 c -0.244,-1.708 0.122,-5.492 1.83,-6.468 7.567,-4.698 14.706,-9.824 17.513,-14.95 10.008,-18.062 -7.017,-34.781 -21.723,-33.194 7.994,5.919 10.312,18.061 7.323,31.303 -1.221,5.187 -3.113,9.886 -6.469,15.194 C -0.385,-6.833 0.122,-3.601 0,0 Z"
             style="fill:#7d4698;fill-opacity:1;fill-rule:nonzero;stroke:none"
             id="path30"
             inkscape:connector-curvature="0" /></g><g
           id="g32"
           transform="translate(112.0139,776.9139)"><path
             d="m 0,0 5.37,-0.732 c -1.587,-5.248 3.112,-8.909 4.637,-9.764 3.417,-1.892 6.713,-3.844 9.337,-6.224 4.943,-4.515 7.749,-10.861 7.749,-17.574 0,-6.651 -3.051,-13.058 -8.176,-17.329 -4.821,-4.027 -11.472,-5.736 -17.94,-5.736 -4.028,0 -7.628,0.183 -11.533,1.465 -8.909,2.99 -15.56,10.617 -16.109,19.77 -0.489,7.14 1.098,12.571 6.651,18.245 2.868,2.99 8.665,6.407 12.632,9.153 1.952,1.343 4.027,5.127 0.06,12.265 L -6.528,4.15 -0.65,0.213 -5.613,2.258 c 0.427,-0.61 1.587,-3.356 1.831,-4.149 0.549,-2.258 0.305,-4.455 -0.183,-5.431 -2.502,-4.516 -6.773,-5.736 -9.885,-8.299 -5.492,-4.515 -11.472,-8.116 -10.801,-20.503 0.305,-6.102 5.065,-13.546 12.204,-17.024 4.028,-1.953 8.665,-2.746 13.364,-2.99 4.21,-0.184 12.265,2.318 16.658,5.98 4.699,3.905 7.323,9.824 7.323,15.864 0,6.103 -2.441,11.9 -7.018,15.988 -2.624,2.38 -6.956,5.248 -9.641,6.774 -2.684,1.525 -6.041,5.796 -4.943,9.885 z"
             style="fill:#000000;fill-opacity:1;fill-rule:nonzero;stroke:none"
             id="path34"
             inkscape:connector-curvature="0" /></g><g
           id="g36"
           transform="translate(110.3666,767.8828)"><path
             d="m 0,0 c -0.549,-2.807 -1.159,-7.872 -3.6,-9.763 -1.038,-0.732 -2.075,-1.465 -3.173,-2.197 -4.394,-2.99 -8.788,-5.797 -10.801,-12.997 -0.427,-1.526 -0.061,-3.173 0.306,-4.699 1.098,-4.393 4.21,-9.153 6.651,-11.96 0,-0.122 0.488,-0.427 0.488,-0.549 2.014,-2.38 2.624,-3.051 10.251,-4.759 l -0.183,-0.855 c -4.576,1.22 -8.359,2.318 -10.739,5.065 0,0.06 -0.428,0.488 -0.428,0.488 -2.562,2.929 -5.675,7.81 -6.834,12.387 -0.427,1.831 -0.793,3.234 -0.305,5.126 2.075,7.444 6.59,10.373 11.167,13.485 1.037,0.671 2.258,1.282 3.234,2.075 C -2.075,-7.75 -1.038,-3.478 0,0"
             style="fill:#000000;fill-opacity:1;fill-rule:nonzero;stroke:none"
             id="path38"
             inkscape:connector-curvature="0" /></g><g
           id="g40"
           transform="translate(112.3179,756.2894)"><path
             d="m 0,0 c 0.061,-3.173 -0.249,-4.765 0.545,-7.023 0.487,-1.342 2.136,-3.173 2.624,-4.943 0.672,-2.38 1.403,-5.004 1.341,-6.59 0,-1.831 -0.115,-5.247 -0.908,-8.908 -0.604,-3.025 -1.998,-5.622 -4.342,-7.093 -2.401,0.494 -5.22,1.338 -6.883,2.765 -3.234,2.806 -6.099,7.5 -6.465,11.588 -0.305,3.356 2.803,8.306 7.135,10.807 3.661,2.136 4.512,4.57 5.305,8.475 -1.098,-3.417 -2.129,-6.281 -5.668,-8.112 -5.126,-2.685 -7.756,-7.191 -7.512,-11.463 0.366,-5.491 2.565,-9.213 6.897,-12.203 1.831,-1.281 5.251,-2.636 7.386,-3.002 v 0.279 c 1.62,0.304 3.717,2.964 4.762,6.563 0.915,3.234 1.276,7.373 1.214,9.997 -0.061,1.525 -0.734,4.829 -1.954,7.819 C 2.806,-9.397 1.775,-7.75 1.103,-6.59 0.372,-5.43 0.366,-2.929 0,0"
             style="fill:#000000;fill-opacity:1;fill-rule:nonzero;stroke:none"
             id="path42"
             inkscape:connector-curvature="0" /></g><g
           id="g44"
           transform="translate(111.9548,744.3235)"><path
             d="m 0,0 c 0.061,-2.136 0.919,-4.872 1.285,-7.679 0.305,-2.075 0.172,-4.159 0.111,-5.99 -0.06,-2.12 -0.766,-5.917 -1.731,-7.763 -0.91,0.417 -1.266,0.893 -1.857,1.661 -0.732,1.038 -1.229,2.075 -1.717,3.295 -0.366,0.916 -0.794,1.964 -0.978,3.184 -0.244,1.83 -0.175,4.694 1.899,7.623 1.587,2.319 1.95,2.495 2.499,5.18 -0.732,-2.379 -1.279,-2.622 -2.988,-4.635 -1.891,-2.197 -2.206,-5.433 -2.206,-8.057 0,-1.098 0.438,-2.317 0.866,-3.476 0.488,-1.221 0.907,-2.436 1.578,-3.351 1.009,-1.484 2.3,-2.328 2.932,-2.485 0.004,-0.001 0.01,0 0.014,0 0.013,-0.004 0.029,-0.012 0.042,-0.014 v 0.069 c 1.184,1.32 1.896,2.632 2.136,3.952 0.305,1.586 0.375,3.176 0.558,5.068 0.183,1.587 0.051,3.724 -0.377,5.92 C 1.457,-4.752 0.427,-1.952 0,0 Z"
             style="fill:#000000;fill-opacity:1;fill-rule:nonzero;stroke:none"
             id="path46"
             inkscape:connector-curvature="0" /></g><g
           id="g48"
           transform="translate(112.1359,770.4456)"><path
             d="m 0,0 c 0.061,-3.173 0.305,-9.092 1.159,-11.411 0.244,-0.793 2.502,-4.271 4.088,-8.481 1.099,-2.93 1.343,-5.614 1.526,-6.407 0.732,-3.479 -0.183,-9.337 -1.404,-14.889 -0.61,-2.99 -2.685,-6.713 -5.064,-8.177 l -0.488,-0.855 c 1.342,0.062 4.637,3.296 5.797,7.323 1.953,6.834 2.746,10.007 1.831,17.574 -0.122,0.733 -0.428,3.234 -1.587,5.919 -1.709,4.089 -4.149,7.994 -4.454,8.787 C 0.854,-9.336 0.122,-3.783 0,0 Z"
             style="fill:#000000;fill-opacity:1;fill-rule:nonzero;stroke:none"
             id="path50"
             inkscape:connector-curvature="0" /></g><g
           id="g52"
           transform="translate(113.2808,774.7852)"><path
             d="m 0,0 c -0.181,-3.261 -0.229,-4.462 0.38,-6.841 0.672,-2.624 4.089,-6.407 5.492,-10.74 2.685,-8.299 2.014,-19.16 0.061,-27.642 -0.732,-2.99 -4.21,-7.323 -7.688,-8.725 l 2.563,-0.611 c 1.403,0.061 5.003,3.417 6.407,7.262 2.257,6.041 2.684,13.241 1.769,20.807 -0.061,0.733 -1.282,7.262 -2.441,10.008 C 4.895,-12.394 1.966,-8.733 1.661,-7.94 1.113,-6.597 -0.093,-3.81 0,0 Z"
             style="fill:#000000;fill-opacity:1;fill-rule:nonzero;stroke:none"
             id="path54"
             inkscape:connector-curvature="0" /></g><path
           d="m 111.341,777.08 h 0.246 v -56.305 h -0.246 z"
           style="fill:#000000;fill-opacity:1;fill-rule:nonzero;stroke:none"
           id="path56"
           inkscape:connector-curvature="0" /><g
           id="g58"
           transform="translate(42.6338,794.1218)"><path
             d="m 0,0 h 48.999 c 1.831,0 3.417,-1.525 3.417,-3.417 v -14.462 c 0,-1.891 -1.586,-3.417 -3.417,-3.417 H 38.931 c -2.258,0 -3.234,-1.281 -3.234,-2.746 v -47.351 c 0,-1.587 -1.282,-2.807 -2.807,-2.807 H 16.232 c -1.526,0 -2.746,1.22 -2.746,2.807 v 47.778 c 0,1.465 -1.343,2.318 -2.38,2.318 H 0 c -1.892,0 -3.417,1.526 -3.417,3.418 V -3.417 C -3.418,-1.525 -1.892,0 0,0"
             style="fill:#7d4698;fill-opacity:1;fill-rule:nonzero;stroke:none"
             id="path60"
             inkscape:connector-curvature="0" /></g><g
           id="g62"
           transform="translate(168.3466,774.9614)"><path
             d="M 0,0 H 4.332 C 5.919,0 7.2,-1.281 7.2,-2.807 v -15.499 c 0,-2.014 0.122,-2.807 -2.319,-2.807 -4.82,0 -7.017,-2.563 -7.017,-5.37 V -52.66 c 0,-1.221 -1.159,-2.258 -2.563,-2.258 h -15.56 c -1.404,0 -2.563,1.037 -2.563,2.258 v 29.839 c -0.017,0.525 -0.007,1.299 0.061,1.708 0.855,11.045 9.52,19.882 20.503,20.991 C -1.89,-0.085 -0.587,0 0,0 Z"
             style="fill:#7d4698;fill-opacity:1;fill-rule:nonzero;stroke:none"
             id="path64"
             inkscape:connector-curvature="0" /></g><path
           d="M 595.28,0 H 0 v 676.89 h 595.28 z"
           style="fill:#7d4698;fill-opacity:1;fill-rule:nonzero;stroke:none"
           id="path66"
           inkscape:connector-curvature="0" /></g></g><text
       transform="matrix(1,0,0,-1,39,560.4922)"
       style="font-variant:normal;font-weight:bold;font-stretch:normal;font-size:99px;font-family:'Source Sans Pro';-inkscape-font-specification:SourceSansPro-Bold;writing-mode:lr-tb;fill:#ffffff;fill-opacity:1;fill-rule:nonzero;stroke:none"
       id="text72"><tspan
         x="0 54.846001 92.763 144.342 172.65601"
         y="0"
         sodipodi:role="line"
         id="tspan68">Style</tspan><tspan
         x="0 52.866001 109.098 136.422 193.149"
         y="91.971001"
         sodipodi:role="line"
         id="tspan70">guide</tspan></text>
<g
       id="g74"><g
         id="g76"
         clip-path="url(#clipPath80)"><path
           d="M 499,415.89 H 39 v 9 h 460 z"
           style="fill:#ffffff;fill-opacity:1;fill-rule:nonzero;stroke:none"
           id="path82"
           inkscape:connector-curvature="0" /><g
           id="g84"
           transform="translate(457.7734,336.3358)"><path
             d="M 0,0 -14.185,-56.339 C 5.908,-16.548 37.821,13.394 74.464,39.794 47.673,8.669 23.246,-22.459 8.274,-53.584 33.491,-18.123 67.373,1.575 105.589,14.577 54.764,-30.733 14.421,-79.352 -16.312,-128.207 l -24.426,10.636 C -36.408,-78.565 -21.671,-38.614 0,0 Z"
             style="fill:#68b030;fill-opacity:1;fill-rule:nonzero;stroke:none"
             id="path86"
             inkscape:connector-curvature="0" /></g><g
           id="g88"
           transform="translate(392.541,229.1231)"><path
             d="m 0,0 46.493,-19.288 c 0,-11.822 -0.961,-47.88 6.431,-58.517 77.323,-99.583 64.314,-299.2 -15.663,-304.32 -121.79,0 -168.238,82.735 -168.238,158.777 0,69.344 83.131,115.442 132.777,156.415 C 14.407,-55.901 12.217,-31.52 0,0 Z"
             style="fill:#f5f8dd;fill-opacity:1;fill-rule:nonzero;stroke:none"
             id="path90"
             inkscape:connector-curvature="0" /></g><g
           id="g92"
           transform="translate(439.0476,210.5289)"><path
             d="m 0,0 16.755,-8.547 c -1.575,-11.029 0.788,-35.461 11.817,-41.762 48.858,-30.337 94.953,-63.432 113.078,-96.528 64.616,-116.624 -45.31,-224.576 -140.262,-214.331 51.613,38.218 66.586,116.621 47.28,202.12 -7.879,33.49 -20.096,63.827 -41.767,98.106 C -2.487,-44.117 0.791,-23.249 0,0 Z"
             style="fill:#7d4698;fill-opacity:1;fill-rule:nonzero;stroke:none"
             id="path94"
             inkscape:connector-curvature="0" /></g><g
           id="g96"
           transform="translate(430.9816,213.4085)"><path
             d="m 0,0 34.67,-4.728 c -10.244,-33.883 20.096,-57.522 29.945,-63.041 22.064,-12.214 43.34,-24.821 60.283,-40.186 31.915,-29.154 50.038,-70.131 50.038,-113.471 0,-42.944 -19.701,-84.313 -52.796,-111.892 -31.125,-26.005 -74.069,-37.036 -115.834,-37.036 -26.004,0 -49.25,1.18 -74.464,9.456 -57.522,19.306 -100.469,68.554 -104.014,127.656 -3.153,46.097 7.091,81.163 42.947,117.804 18.515,19.305 55.946,41.369 81.558,59.099 12.61,8.669 26.004,33.098 0.392,79.193 l 5.124,3.941 L -4.196,1.373 -36.24,14.58 c 2.758,-3.941 10.244,-21.671 11.822,-26.792 3.546,-14.577 1.971,-28.765 -1.182,-35.065 -16.153,-29.158 -43.732,-37.036 -63.825,-53.584 -35.461,-29.154 -74.072,-52.401 -69.739,-132.381 1.97,-39.399 32.703,-87.466 78.797,-109.925 26.004,-12.61 55.949,-17.731 86.287,-19.306 27.184,-1.183 79.192,14.973 107.559,38.611 30.338,25.214 47.28,63.433 47.28,102.436 0,39.402 -15.76,76.83 -45.309,103.23 -16.943,15.365 -44.915,33.883 -62.25,43.735 -17.335,9.848 -39.007,37.428 -31.915,63.824 z"
             style="fill:#000000;fill-opacity:1;fill-rule:nonzero;stroke:none"
             id="path98"
             inkscape:connector-curvature="0" /></g><g
           id="g100"
           transform="translate(420.345,155.0965)"><path
             d="m 0,0 c -3.546,-18.126 -7.486,-50.826 -23.246,-63.04 -6.699,-4.726 -13.398,-9.457 -20.489,-14.182 -28.367,-19.309 -56.736,-37.429 -69.736,-83.921 -2.758,-9.852 -0.392,-20.489 1.974,-30.338 7.091,-28.367 27.184,-59.099 42.944,-77.225 0,-0.787 3.153,-2.758 3.153,-3.545 13.002,-15.368 16.943,-19.701 66.19,-30.73 l -1.182,-5.519 c -29.55,7.879 -53.976,14.97 -69.344,32.703 0,0.393 -2.758,3.153 -2.758,3.153 -16.548,18.914 -36.644,50.431 -44.127,79.981 -2.758,11.822 -5.121,20.88 -1.97,33.098 13.394,48.065 42.552,66.978 72.101,87.071 6.699,4.333 14.577,8.277 20.881,13.397 C -13.397,-50.038 -6.702,-22.456 0,0 Z"
             style="fill:#000000;fill-opacity:1;fill-rule:nonzero;stroke:none"
             id="path102"
             inkscape:connector-curvature="0" /></g><g
           id="g104"
           transform="translate(432.944,80.2406)"><path
             d="m 0,0 c 0.395,-20.488 -1.605,-30.766 3.516,-45.347 3.15,-8.666 13.795,-20.487 16.949,-31.914 4.333,-15.367 9.052,-32.307 8.654,-42.551 0,-11.823 -0.739,-33.876 -5.86,-57.518 -3.905,-19.533 -12.904,-36.296 -28.037,-45.797 -15.501,3.192 -33.702,8.641 -44.445,17.85 -20.881,18.123 -39.375,48.427 -41.741,74.827 -1.967,21.668 18.096,53.625 46.068,69.777 23.639,13.79 29.137,29.506 34.258,54.723 -7.091,-22.064 -13.751,-40.559 -36.602,-52.379 -33.095,-17.335 -50.077,-46.435 -48.502,-74.015 2.363,-35.458 16.564,-59.484 44.535,-78.793 11.82,-8.273 33.901,-17.017 47.691,-19.382 v 1.803 c 10.458,1.958 23.997,19.134 30.742,42.371 5.911,20.881 8.241,47.606 7.843,64.549 -0.395,9.849 -4.74,31.18 -12.621,50.486 -4.333,10.636 -10.99,21.272 -15.326,28.758 C 2.4,-35.06 2.366,-18.91 0,0"
             style="fill:#000000;fill-opacity:1;fill-rule:nonzero;stroke:none"
             id="path106"
             inkscape:connector-curvature="0" /></g><g
           id="g108"
           transform="translate(430.6,2.9801)"><path
             d="m 0,0 c 0.392,-13.79 5.931,-31.458 8.294,-49.584 1.973,-13.397 1.116,-26.853 0.721,-38.675 -0.389,-13.684 -4.948,-38.202 -11.179,-50.125 -5.875,2.695 -8.172,5.768 -11.99,10.728 -4.725,6.699 -7.935,13.398 -11.089,21.276 -2.362,5.911 -5.125,12.676 -6.31,20.555 -1.575,11.819 -1.134,30.31 12.26,49.223 10.245,14.973 12.592,16.111 16.138,33.447 -4.732,-15.365 -8.258,-16.932 -19.293,-29.931 -12.212,-14.185 -14.244,-35.078 -14.244,-52.018 0,-7.094 2.829,-14.964 5.589,-22.448 3.151,-7.881 5.855,-15.728 10.188,-21.636 6.514,-9.58 14.851,-15.028 18.932,-16.047 0.026,-0.006 0.063,0.005 0.09,0 0.087,-0.021 0.187,-0.074 0.27,-0.09 v 0.45 c 7.644,8.523 12.245,16.99 13.793,25.513 1.971,10.245 2.424,20.511 3.606,32.726 1.18,10.244 0.324,24.042 -2.434,38.224 C 9.404,-30.681 2.758,-12.604 0,0 Z"
             style="fill:#000000;fill-opacity:1;fill-rule:nonzero;stroke:none"
             id="path110"
             inkscape:connector-curvature="0" /></g><g
           id="g112"
           transform="translate(431.7691,171.6442)"><path
             d="m 0,0 c 0.395,-20.485 1.97,-58.707 7.486,-73.677 1.575,-5.12 16.153,-27.579 26.394,-54.763 7.094,-18.914 8.669,-36.249 9.852,-41.369 4.728,-22.459 -1.183,-60.283 -9.064,-96.136 -3.938,-19.306 -17.336,-43.339 -32.701,-52.796 l -3.15,-5.516 c 8.669,0.395 29.942,21.276 37.429,47.28 12.609,44.127 17.73,64.616 11.822,113.471 -0.788,4.731 -2.758,20.881 -10.244,38.219 C 26.792,-98.888 11.032,-73.674 9.064,-68.55 5.516,-60.279 0.788,-24.426 0,0 Z"
             style="fill:#000000;fill-opacity:1;fill-rule:nonzero;stroke:none"
             id="path114"
             inkscape:connector-curvature="0" /></g><g
           id="g116"
           transform="translate(439.1617,199.6642)"><path
             d="m 0,0 c -1.169,-21.054 -1.481,-28.808 2.456,-44.172 4.334,-16.943 26.4,-41.37 35.461,-69.344 17.336,-53.584 13.002,-123.715 0.393,-178.479 -4.726,-19.302 -27.187,-47.28 -49.643,-56.338 l 16.547,-3.941 c 9.062,0.395 32.305,22.063 41.369,46.885 14.575,39.006 17.336,85.496 11.424,134.351 -0.395,4.729 -8.276,46.885 -15.76,64.616 -10.639,26.396 -29.552,50.038 -31.52,55.156 C 7.185,-42.597 -0.6,-24.6 0,0 Z"
             style="fill:#000000;fill-opacity:1;fill-rule:nonzero;stroke:none"
             id="path118"
             inkscape:connector-curvature="0" /></g><path
           d="m 426.636,214.481 h 1.588 v -363.549 h -1.588 z"
           style="fill:#000000;fill-opacity:1;fill-rule:nonzero;stroke:none"
           id="path120"
           inkscape:connector-curvature="0" /></g></g><text
       transform="matrix(1,0,0,-1,43.271,71.791)"
       style="font-variant:normal;font-weight:normal;font-stretch:normal;font-size:18px;font-family:'Source Sans Pro';-inkscape-font-specification:SourceSansPro-Regular;writing-mode:lr-tb;fill:#ffffff;fill-opacity:1;fill-rule:nonzero;stroke:none"
       id="text126"><tspan
         x="0 9.5220003 18.450001 28.440001 34.344002 43.271999 58.194 68.183998 77.112 83.358002 86.994003 95.940002 104.886 113.832"
         y="0"
         sodipodi:role="line"
         id="tspan122">September 2016</tspan><tspan
         x="0 9.6660004 19.854 23.49 33.731998 42.209999 45.846001 54.792 59.273998 68.220001 71.856003 81.414001 91.206001 100.134 103.77 112.14 121.896 128.142 131.778 142.056 148.12199 157.87801 162.32401 171.252 179.46001"
         y="19.997999"
         sodipodi:role="line"
         id="tspan124">CC BY 4.0 The Tor Project</tspan></text>
</g></svg>